%TF.GenerationSoftware,KiCad,Pcbnew,7.0.8*%
%TF.CreationDate,2025-04-01T23:17:51+07:00*%
%TF.ProjectId,esp32_smth,65737033-325f-4736-9d74-682e6b696361,rev?*%
%TF.SameCoordinates,Original*%
%TF.FileFunction,Legend,Top*%
%TF.FilePolarity,Positive*%
%FSLAX46Y46*%
G04 Gerber Fmt 4.6, Leading zero omitted, Abs format (unit mm)*
G04 Created by KiCad (PCBNEW 7.0.8) date 2025-04-01 23:17:51*
%MOMM*%
%LPD*%
G01*
G04 APERTURE LIST*
%ADD10C,0.150000*%
%ADD11C,0.120000*%
%ADD12C,0.127000*%
%ADD13C,0.200000*%
G04 APERTURE END LIST*
D10*
X188029819Y-156208333D02*
X188744104Y-156208333D01*
X188744104Y-156208333D02*
X188886961Y-156255952D01*
X188886961Y-156255952D02*
X188982200Y-156351190D01*
X188982200Y-156351190D02*
X189029819Y-156494047D01*
X189029819Y-156494047D02*
X189029819Y-156589285D01*
X188363152Y-155303571D02*
X189029819Y-155303571D01*
X187982200Y-155541666D02*
X188696485Y-155779761D01*
X188696485Y-155779761D02*
X188696485Y-155160714D01*
X189284580Y-134291666D02*
X189332200Y-134339285D01*
X189332200Y-134339285D02*
X189379819Y-134482142D01*
X189379819Y-134482142D02*
X189379819Y-134577380D01*
X189379819Y-134577380D02*
X189332200Y-134720237D01*
X189332200Y-134720237D02*
X189236961Y-134815475D01*
X189236961Y-134815475D02*
X189141723Y-134863094D01*
X189141723Y-134863094D02*
X188951247Y-134910713D01*
X188951247Y-134910713D02*
X188808390Y-134910713D01*
X188808390Y-134910713D02*
X188617914Y-134863094D01*
X188617914Y-134863094D02*
X188522676Y-134815475D01*
X188522676Y-134815475D02*
X188427438Y-134720237D01*
X188427438Y-134720237D02*
X188379819Y-134577380D01*
X188379819Y-134577380D02*
X188379819Y-134482142D01*
X188379819Y-134482142D02*
X188427438Y-134339285D01*
X188427438Y-134339285D02*
X188475057Y-134291666D01*
X188475057Y-133910713D02*
X188427438Y-133863094D01*
X188427438Y-133863094D02*
X188379819Y-133767856D01*
X188379819Y-133767856D02*
X188379819Y-133529761D01*
X188379819Y-133529761D02*
X188427438Y-133434523D01*
X188427438Y-133434523D02*
X188475057Y-133386904D01*
X188475057Y-133386904D02*
X188570295Y-133339285D01*
X188570295Y-133339285D02*
X188665533Y-133339285D01*
X188665533Y-133339285D02*
X188808390Y-133386904D01*
X188808390Y-133386904D02*
X189379819Y-133958332D01*
X189379819Y-133958332D02*
X189379819Y-133339285D01*
X215029819Y-105508333D02*
X215744104Y-105508333D01*
X215744104Y-105508333D02*
X215886961Y-105555952D01*
X215886961Y-105555952D02*
X215982200Y-105651190D01*
X215982200Y-105651190D02*
X216029819Y-105794047D01*
X216029819Y-105794047D02*
X216029819Y-105889285D01*
X216029819Y-104508333D02*
X216029819Y-105079761D01*
X216029819Y-104794047D02*
X215029819Y-104794047D01*
X215029819Y-104794047D02*
X215172676Y-104889285D01*
X215172676Y-104889285D02*
X215267914Y-104984523D01*
X215267914Y-104984523D02*
X215315533Y-105079761D01*
X181709580Y-89379166D02*
X181757200Y-89426785D01*
X181757200Y-89426785D02*
X181804819Y-89569642D01*
X181804819Y-89569642D02*
X181804819Y-89664880D01*
X181804819Y-89664880D02*
X181757200Y-89807737D01*
X181757200Y-89807737D02*
X181661961Y-89902975D01*
X181661961Y-89902975D02*
X181566723Y-89950594D01*
X181566723Y-89950594D02*
X181376247Y-89998213D01*
X181376247Y-89998213D02*
X181233390Y-89998213D01*
X181233390Y-89998213D02*
X181042914Y-89950594D01*
X181042914Y-89950594D02*
X180947676Y-89902975D01*
X180947676Y-89902975D02*
X180852438Y-89807737D01*
X180852438Y-89807737D02*
X180804819Y-89664880D01*
X180804819Y-89664880D02*
X180804819Y-89569642D01*
X180804819Y-89569642D02*
X180852438Y-89426785D01*
X180852438Y-89426785D02*
X180900057Y-89379166D01*
X181804819Y-88902975D02*
X181804819Y-88712499D01*
X181804819Y-88712499D02*
X181757200Y-88617261D01*
X181757200Y-88617261D02*
X181709580Y-88569642D01*
X181709580Y-88569642D02*
X181566723Y-88474404D01*
X181566723Y-88474404D02*
X181376247Y-88426785D01*
X181376247Y-88426785D02*
X180995295Y-88426785D01*
X180995295Y-88426785D02*
X180900057Y-88474404D01*
X180900057Y-88474404D02*
X180852438Y-88522023D01*
X180852438Y-88522023D02*
X180804819Y-88617261D01*
X180804819Y-88617261D02*
X180804819Y-88807737D01*
X180804819Y-88807737D02*
X180852438Y-88902975D01*
X180852438Y-88902975D02*
X180900057Y-88950594D01*
X180900057Y-88950594D02*
X180995295Y-88998213D01*
X180995295Y-88998213D02*
X181233390Y-88998213D01*
X181233390Y-88998213D02*
X181328628Y-88950594D01*
X181328628Y-88950594D02*
X181376247Y-88902975D01*
X181376247Y-88902975D02*
X181423866Y-88807737D01*
X181423866Y-88807737D02*
X181423866Y-88617261D01*
X181423866Y-88617261D02*
X181376247Y-88522023D01*
X181376247Y-88522023D02*
X181328628Y-88474404D01*
X181328628Y-88474404D02*
X181233390Y-88426785D01*
X219154761Y-133825057D02*
X219059523Y-133777438D01*
X219059523Y-133777438D02*
X218964285Y-133682200D01*
X218964285Y-133682200D02*
X218821428Y-133539342D01*
X218821428Y-133539342D02*
X218726190Y-133491723D01*
X218726190Y-133491723D02*
X218630952Y-133491723D01*
X218678571Y-133729819D02*
X218583333Y-133682200D01*
X218583333Y-133682200D02*
X218488095Y-133586961D01*
X218488095Y-133586961D02*
X218440476Y-133396485D01*
X218440476Y-133396485D02*
X218440476Y-133063152D01*
X218440476Y-133063152D02*
X218488095Y-132872676D01*
X218488095Y-132872676D02*
X218583333Y-132777438D01*
X218583333Y-132777438D02*
X218678571Y-132729819D01*
X218678571Y-132729819D02*
X218869047Y-132729819D01*
X218869047Y-132729819D02*
X218964285Y-132777438D01*
X218964285Y-132777438D02*
X219059523Y-132872676D01*
X219059523Y-132872676D02*
X219107142Y-133063152D01*
X219107142Y-133063152D02*
X219107142Y-133396485D01*
X219107142Y-133396485D02*
X219059523Y-133586961D01*
X219059523Y-133586961D02*
X218964285Y-133682200D01*
X218964285Y-133682200D02*
X218869047Y-133729819D01*
X218869047Y-133729819D02*
X218678571Y-133729819D01*
X219488095Y-132825057D02*
X219535714Y-132777438D01*
X219535714Y-132777438D02*
X219630952Y-132729819D01*
X219630952Y-132729819D02*
X219869047Y-132729819D01*
X219869047Y-132729819D02*
X219964285Y-132777438D01*
X219964285Y-132777438D02*
X220011904Y-132825057D01*
X220011904Y-132825057D02*
X220059523Y-132920295D01*
X220059523Y-132920295D02*
X220059523Y-133015533D01*
X220059523Y-133015533D02*
X220011904Y-133158390D01*
X220011904Y-133158390D02*
X219440476Y-133729819D01*
X219440476Y-133729819D02*
X220059523Y-133729819D01*
X177834580Y-113491666D02*
X177882200Y-113539285D01*
X177882200Y-113539285D02*
X177929819Y-113682142D01*
X177929819Y-113682142D02*
X177929819Y-113777380D01*
X177929819Y-113777380D02*
X177882200Y-113920237D01*
X177882200Y-113920237D02*
X177786961Y-114015475D01*
X177786961Y-114015475D02*
X177691723Y-114063094D01*
X177691723Y-114063094D02*
X177501247Y-114110713D01*
X177501247Y-114110713D02*
X177358390Y-114110713D01*
X177358390Y-114110713D02*
X177167914Y-114063094D01*
X177167914Y-114063094D02*
X177072676Y-114015475D01*
X177072676Y-114015475D02*
X176977438Y-113920237D01*
X176977438Y-113920237D02*
X176929819Y-113777380D01*
X176929819Y-113777380D02*
X176929819Y-113682142D01*
X176929819Y-113682142D02*
X176977438Y-113539285D01*
X176977438Y-113539285D02*
X177025057Y-113491666D01*
X176929819Y-113158332D02*
X176929819Y-112491666D01*
X176929819Y-112491666D02*
X177929819Y-112920237D01*
X182673095Y-122129819D02*
X182673095Y-122939342D01*
X182673095Y-122939342D02*
X182720714Y-123034580D01*
X182720714Y-123034580D02*
X182768333Y-123082200D01*
X182768333Y-123082200D02*
X182863571Y-123129819D01*
X182863571Y-123129819D02*
X183054047Y-123129819D01*
X183054047Y-123129819D02*
X183149285Y-123082200D01*
X183149285Y-123082200D02*
X183196904Y-123034580D01*
X183196904Y-123034580D02*
X183244523Y-122939342D01*
X183244523Y-122939342D02*
X183244523Y-122129819D01*
X183625476Y-122129819D02*
X184244523Y-122129819D01*
X184244523Y-122129819D02*
X183911190Y-122510771D01*
X183911190Y-122510771D02*
X184054047Y-122510771D01*
X184054047Y-122510771D02*
X184149285Y-122558390D01*
X184149285Y-122558390D02*
X184196904Y-122606009D01*
X184196904Y-122606009D02*
X184244523Y-122701247D01*
X184244523Y-122701247D02*
X184244523Y-122939342D01*
X184244523Y-122939342D02*
X184196904Y-123034580D01*
X184196904Y-123034580D02*
X184149285Y-123082200D01*
X184149285Y-123082200D02*
X184054047Y-123129819D01*
X184054047Y-123129819D02*
X183768333Y-123129819D01*
X183768333Y-123129819D02*
X183673095Y-123082200D01*
X183673095Y-123082200D02*
X183625476Y-123034580D01*
X220724819Y-149141666D02*
X220248628Y-149474999D01*
X220724819Y-149713094D02*
X219724819Y-149713094D01*
X219724819Y-149713094D02*
X219724819Y-149332142D01*
X219724819Y-149332142D02*
X219772438Y-149236904D01*
X219772438Y-149236904D02*
X219820057Y-149189285D01*
X219820057Y-149189285D02*
X219915295Y-149141666D01*
X219915295Y-149141666D02*
X220058152Y-149141666D01*
X220058152Y-149141666D02*
X220153390Y-149189285D01*
X220153390Y-149189285D02*
X220201009Y-149236904D01*
X220201009Y-149236904D02*
X220248628Y-149332142D01*
X220248628Y-149332142D02*
X220248628Y-149713094D01*
X219724819Y-148284523D02*
X219724819Y-148474999D01*
X219724819Y-148474999D02*
X219772438Y-148570237D01*
X219772438Y-148570237D02*
X219820057Y-148617856D01*
X219820057Y-148617856D02*
X219962914Y-148713094D01*
X219962914Y-148713094D02*
X220153390Y-148760713D01*
X220153390Y-148760713D02*
X220534342Y-148760713D01*
X220534342Y-148760713D02*
X220629580Y-148713094D01*
X220629580Y-148713094D02*
X220677200Y-148665475D01*
X220677200Y-148665475D02*
X220724819Y-148570237D01*
X220724819Y-148570237D02*
X220724819Y-148379761D01*
X220724819Y-148379761D02*
X220677200Y-148284523D01*
X220677200Y-148284523D02*
X220629580Y-148236904D01*
X220629580Y-148236904D02*
X220534342Y-148189285D01*
X220534342Y-148189285D02*
X220296247Y-148189285D01*
X220296247Y-148189285D02*
X220201009Y-148236904D01*
X220201009Y-148236904D02*
X220153390Y-148284523D01*
X220153390Y-148284523D02*
X220105771Y-148379761D01*
X220105771Y-148379761D02*
X220105771Y-148570237D01*
X220105771Y-148570237D02*
X220153390Y-148665475D01*
X220153390Y-148665475D02*
X220201009Y-148713094D01*
X220201009Y-148713094D02*
X220296247Y-148760713D01*
X198279819Y-135663094D02*
X197279819Y-135663094D01*
X197279819Y-135663094D02*
X197279819Y-135424999D01*
X197279819Y-135424999D02*
X197327438Y-135282142D01*
X197327438Y-135282142D02*
X197422676Y-135186904D01*
X197422676Y-135186904D02*
X197517914Y-135139285D01*
X197517914Y-135139285D02*
X197708390Y-135091666D01*
X197708390Y-135091666D02*
X197851247Y-135091666D01*
X197851247Y-135091666D02*
X198041723Y-135139285D01*
X198041723Y-135139285D02*
X198136961Y-135186904D01*
X198136961Y-135186904D02*
X198232200Y-135282142D01*
X198232200Y-135282142D02*
X198279819Y-135424999D01*
X198279819Y-135424999D02*
X198279819Y-135663094D01*
X198279819Y-134139285D02*
X198279819Y-134710713D01*
X198279819Y-134424999D02*
X197279819Y-134424999D01*
X197279819Y-134424999D02*
X197422676Y-134520237D01*
X197422676Y-134520237D02*
X197517914Y-134615475D01*
X197517914Y-134615475D02*
X197565533Y-134710713D01*
X183508333Y-125284580D02*
X183460714Y-125332200D01*
X183460714Y-125332200D02*
X183317857Y-125379819D01*
X183317857Y-125379819D02*
X183222619Y-125379819D01*
X183222619Y-125379819D02*
X183079762Y-125332200D01*
X183079762Y-125332200D02*
X182984524Y-125236961D01*
X182984524Y-125236961D02*
X182936905Y-125141723D01*
X182936905Y-125141723D02*
X182889286Y-124951247D01*
X182889286Y-124951247D02*
X182889286Y-124808390D01*
X182889286Y-124808390D02*
X182936905Y-124617914D01*
X182936905Y-124617914D02*
X182984524Y-124522676D01*
X182984524Y-124522676D02*
X183079762Y-124427438D01*
X183079762Y-124427438D02*
X183222619Y-124379819D01*
X183222619Y-124379819D02*
X183317857Y-124379819D01*
X183317857Y-124379819D02*
X183460714Y-124427438D01*
X183460714Y-124427438D02*
X183508333Y-124475057D01*
X184413095Y-124379819D02*
X183936905Y-124379819D01*
X183936905Y-124379819D02*
X183889286Y-124856009D01*
X183889286Y-124856009D02*
X183936905Y-124808390D01*
X183936905Y-124808390D02*
X184032143Y-124760771D01*
X184032143Y-124760771D02*
X184270238Y-124760771D01*
X184270238Y-124760771D02*
X184365476Y-124808390D01*
X184365476Y-124808390D02*
X184413095Y-124856009D01*
X184413095Y-124856009D02*
X184460714Y-124951247D01*
X184460714Y-124951247D02*
X184460714Y-125189342D01*
X184460714Y-125189342D02*
X184413095Y-125284580D01*
X184413095Y-125284580D02*
X184365476Y-125332200D01*
X184365476Y-125332200D02*
X184270238Y-125379819D01*
X184270238Y-125379819D02*
X184032143Y-125379819D01*
X184032143Y-125379819D02*
X183936905Y-125332200D01*
X183936905Y-125332200D02*
X183889286Y-125284580D01*
X207082142Y-146159580D02*
X207034523Y-146207200D01*
X207034523Y-146207200D02*
X206891666Y-146254819D01*
X206891666Y-146254819D02*
X206796428Y-146254819D01*
X206796428Y-146254819D02*
X206653571Y-146207200D01*
X206653571Y-146207200D02*
X206558333Y-146111961D01*
X206558333Y-146111961D02*
X206510714Y-146016723D01*
X206510714Y-146016723D02*
X206463095Y-145826247D01*
X206463095Y-145826247D02*
X206463095Y-145683390D01*
X206463095Y-145683390D02*
X206510714Y-145492914D01*
X206510714Y-145492914D02*
X206558333Y-145397676D01*
X206558333Y-145397676D02*
X206653571Y-145302438D01*
X206653571Y-145302438D02*
X206796428Y-145254819D01*
X206796428Y-145254819D02*
X206891666Y-145254819D01*
X206891666Y-145254819D02*
X207034523Y-145302438D01*
X207034523Y-145302438D02*
X207082142Y-145350057D01*
X208034523Y-146254819D02*
X207463095Y-146254819D01*
X207748809Y-146254819D02*
X207748809Y-145254819D01*
X207748809Y-145254819D02*
X207653571Y-145397676D01*
X207653571Y-145397676D02*
X207558333Y-145492914D01*
X207558333Y-145492914D02*
X207463095Y-145540533D01*
X208986904Y-146254819D02*
X208415476Y-146254819D01*
X208701190Y-146254819D02*
X208701190Y-145254819D01*
X208701190Y-145254819D02*
X208605952Y-145397676D01*
X208605952Y-145397676D02*
X208510714Y-145492914D01*
X208510714Y-145492914D02*
X208415476Y-145540533D01*
X207069642Y-150709580D02*
X207022023Y-150757200D01*
X207022023Y-150757200D02*
X206879166Y-150804819D01*
X206879166Y-150804819D02*
X206783928Y-150804819D01*
X206783928Y-150804819D02*
X206641071Y-150757200D01*
X206641071Y-150757200D02*
X206545833Y-150661961D01*
X206545833Y-150661961D02*
X206498214Y-150566723D01*
X206498214Y-150566723D02*
X206450595Y-150376247D01*
X206450595Y-150376247D02*
X206450595Y-150233390D01*
X206450595Y-150233390D02*
X206498214Y-150042914D01*
X206498214Y-150042914D02*
X206545833Y-149947676D01*
X206545833Y-149947676D02*
X206641071Y-149852438D01*
X206641071Y-149852438D02*
X206783928Y-149804819D01*
X206783928Y-149804819D02*
X206879166Y-149804819D01*
X206879166Y-149804819D02*
X207022023Y-149852438D01*
X207022023Y-149852438D02*
X207069642Y-149900057D01*
X208022023Y-150804819D02*
X207450595Y-150804819D01*
X207736309Y-150804819D02*
X207736309Y-149804819D01*
X207736309Y-149804819D02*
X207641071Y-149947676D01*
X207641071Y-149947676D02*
X207545833Y-150042914D01*
X207545833Y-150042914D02*
X207450595Y-150090533D01*
X208355357Y-149804819D02*
X208974404Y-149804819D01*
X208974404Y-149804819D02*
X208641071Y-150185771D01*
X208641071Y-150185771D02*
X208783928Y-150185771D01*
X208783928Y-150185771D02*
X208879166Y-150233390D01*
X208879166Y-150233390D02*
X208926785Y-150281009D01*
X208926785Y-150281009D02*
X208974404Y-150376247D01*
X208974404Y-150376247D02*
X208974404Y-150614342D01*
X208974404Y-150614342D02*
X208926785Y-150709580D01*
X208926785Y-150709580D02*
X208879166Y-150757200D01*
X208879166Y-150757200D02*
X208783928Y-150804819D01*
X208783928Y-150804819D02*
X208498214Y-150804819D01*
X208498214Y-150804819D02*
X208402976Y-150757200D01*
X208402976Y-150757200D02*
X208355357Y-150709580D01*
X198038095Y-78704819D02*
X198038095Y-79514342D01*
X198038095Y-79514342D02*
X198085714Y-79609580D01*
X198085714Y-79609580D02*
X198133333Y-79657200D01*
X198133333Y-79657200D02*
X198228571Y-79704819D01*
X198228571Y-79704819D02*
X198419047Y-79704819D01*
X198419047Y-79704819D02*
X198514285Y-79657200D01*
X198514285Y-79657200D02*
X198561904Y-79609580D01*
X198561904Y-79609580D02*
X198609523Y-79514342D01*
X198609523Y-79514342D02*
X198609523Y-78704819D01*
X199609523Y-79704819D02*
X199038095Y-79704819D01*
X199323809Y-79704819D02*
X199323809Y-78704819D01*
X199323809Y-78704819D02*
X199228571Y-78847676D01*
X199228571Y-78847676D02*
X199133333Y-78942914D01*
X199133333Y-78942914D02*
X199038095Y-78990533D01*
X194038094Y-83719104D02*
X194514284Y-83719104D01*
X193942856Y-84004819D02*
X194276189Y-83004819D01*
X194276189Y-83004819D02*
X194609522Y-84004819D01*
X194942856Y-83338152D02*
X194942856Y-84004819D01*
X194942856Y-83433390D02*
X194990475Y-83385771D01*
X194990475Y-83385771D02*
X195085713Y-83338152D01*
X195085713Y-83338152D02*
X195228570Y-83338152D01*
X195228570Y-83338152D02*
X195323808Y-83385771D01*
X195323808Y-83385771D02*
X195371427Y-83481009D01*
X195371427Y-83481009D02*
X195371427Y-84004819D01*
X195704761Y-83338152D02*
X196085713Y-83338152D01*
X195847618Y-83004819D02*
X195847618Y-83861961D01*
X195847618Y-83861961D02*
X195895237Y-83957200D01*
X195895237Y-83957200D02*
X195990475Y-84004819D01*
X195990475Y-84004819D02*
X196085713Y-84004819D01*
X196799999Y-83957200D02*
X196704761Y-84004819D01*
X196704761Y-84004819D02*
X196514285Y-84004819D01*
X196514285Y-84004819D02*
X196419047Y-83957200D01*
X196419047Y-83957200D02*
X196371428Y-83861961D01*
X196371428Y-83861961D02*
X196371428Y-83481009D01*
X196371428Y-83481009D02*
X196419047Y-83385771D01*
X196419047Y-83385771D02*
X196514285Y-83338152D01*
X196514285Y-83338152D02*
X196704761Y-83338152D01*
X196704761Y-83338152D02*
X196799999Y-83385771D01*
X196799999Y-83385771D02*
X196847618Y-83481009D01*
X196847618Y-83481009D02*
X196847618Y-83576247D01*
X196847618Y-83576247D02*
X196371428Y-83671485D01*
X197276190Y-83338152D02*
X197276190Y-84004819D01*
X197276190Y-83433390D02*
X197323809Y-83385771D01*
X197323809Y-83385771D02*
X197419047Y-83338152D01*
X197419047Y-83338152D02*
X197561904Y-83338152D01*
X197561904Y-83338152D02*
X197657142Y-83385771D01*
X197657142Y-83385771D02*
X197704761Y-83481009D01*
X197704761Y-83481009D02*
X197704761Y-84004819D01*
X198180952Y-83338152D02*
X198180952Y-84004819D01*
X198180952Y-83433390D02*
X198228571Y-83385771D01*
X198228571Y-83385771D02*
X198323809Y-83338152D01*
X198323809Y-83338152D02*
X198466666Y-83338152D01*
X198466666Y-83338152D02*
X198561904Y-83385771D01*
X198561904Y-83385771D02*
X198609523Y-83481009D01*
X198609523Y-83481009D02*
X198609523Y-84004819D01*
X199514285Y-84004819D02*
X199514285Y-83481009D01*
X199514285Y-83481009D02*
X199466666Y-83385771D01*
X199466666Y-83385771D02*
X199371428Y-83338152D01*
X199371428Y-83338152D02*
X199180952Y-83338152D01*
X199180952Y-83338152D02*
X199085714Y-83385771D01*
X199514285Y-83957200D02*
X199419047Y-84004819D01*
X199419047Y-84004819D02*
X199180952Y-84004819D01*
X199180952Y-84004819D02*
X199085714Y-83957200D01*
X199085714Y-83957200D02*
X199038095Y-83861961D01*
X199038095Y-83861961D02*
X199038095Y-83766723D01*
X199038095Y-83766723D02*
X199085714Y-83671485D01*
X199085714Y-83671485D02*
X199180952Y-83623866D01*
X199180952Y-83623866D02*
X199419047Y-83623866D01*
X199419047Y-83623866D02*
X199514285Y-83576247D01*
X200704762Y-83719104D02*
X201180952Y-83719104D01*
X200609524Y-84004819D02*
X200942857Y-83004819D01*
X200942857Y-83004819D02*
X201276190Y-84004819D01*
X201609524Y-84004819D02*
X201609524Y-83338152D01*
X201609524Y-83528628D02*
X201657143Y-83433390D01*
X201657143Y-83433390D02*
X201704762Y-83385771D01*
X201704762Y-83385771D02*
X201800000Y-83338152D01*
X201800000Y-83338152D02*
X201895238Y-83338152D01*
X202609524Y-83957200D02*
X202514286Y-84004819D01*
X202514286Y-84004819D02*
X202323810Y-84004819D01*
X202323810Y-84004819D02*
X202228572Y-83957200D01*
X202228572Y-83957200D02*
X202180953Y-83861961D01*
X202180953Y-83861961D02*
X202180953Y-83481009D01*
X202180953Y-83481009D02*
X202228572Y-83385771D01*
X202228572Y-83385771D02*
X202323810Y-83338152D01*
X202323810Y-83338152D02*
X202514286Y-83338152D01*
X202514286Y-83338152D02*
X202609524Y-83385771D01*
X202609524Y-83385771D02*
X202657143Y-83481009D01*
X202657143Y-83481009D02*
X202657143Y-83576247D01*
X202657143Y-83576247D02*
X202180953Y-83671485D01*
X203514286Y-84004819D02*
X203514286Y-83481009D01*
X203514286Y-83481009D02*
X203466667Y-83385771D01*
X203466667Y-83385771D02*
X203371429Y-83338152D01*
X203371429Y-83338152D02*
X203180953Y-83338152D01*
X203180953Y-83338152D02*
X203085715Y-83385771D01*
X203514286Y-83957200D02*
X203419048Y-84004819D01*
X203419048Y-84004819D02*
X203180953Y-84004819D01*
X203180953Y-84004819D02*
X203085715Y-83957200D01*
X203085715Y-83957200D02*
X203038096Y-83861961D01*
X203038096Y-83861961D02*
X203038096Y-83766723D01*
X203038096Y-83766723D02*
X203085715Y-83671485D01*
X203085715Y-83671485D02*
X203180953Y-83623866D01*
X203180953Y-83623866D02*
X203419048Y-83623866D01*
X203419048Y-83623866D02*
X203514286Y-83576247D01*
X209391667Y-158532200D02*
X209534524Y-158579819D01*
X209534524Y-158579819D02*
X209772619Y-158579819D01*
X209772619Y-158579819D02*
X209867857Y-158532200D01*
X209867857Y-158532200D02*
X209915476Y-158484580D01*
X209915476Y-158484580D02*
X209963095Y-158389342D01*
X209963095Y-158389342D02*
X209963095Y-158294104D01*
X209963095Y-158294104D02*
X209915476Y-158198866D01*
X209915476Y-158198866D02*
X209867857Y-158151247D01*
X209867857Y-158151247D02*
X209772619Y-158103628D01*
X209772619Y-158103628D02*
X209582143Y-158056009D01*
X209582143Y-158056009D02*
X209486905Y-158008390D01*
X209486905Y-158008390D02*
X209439286Y-157960771D01*
X209439286Y-157960771D02*
X209391667Y-157865533D01*
X209391667Y-157865533D02*
X209391667Y-157770295D01*
X209391667Y-157770295D02*
X209439286Y-157675057D01*
X209439286Y-157675057D02*
X209486905Y-157627438D01*
X209486905Y-157627438D02*
X209582143Y-157579819D01*
X209582143Y-157579819D02*
X209820238Y-157579819D01*
X209820238Y-157579819D02*
X209963095Y-157627438D01*
X210296429Y-157579819D02*
X210534524Y-158579819D01*
X210534524Y-158579819D02*
X210725000Y-157865533D01*
X210725000Y-157865533D02*
X210915476Y-158579819D01*
X210915476Y-158579819D02*
X211153572Y-157579819D01*
X212058333Y-158579819D02*
X211486905Y-158579819D01*
X211772619Y-158579819D02*
X211772619Y-157579819D01*
X211772619Y-157579819D02*
X211677381Y-157722676D01*
X211677381Y-157722676D02*
X211582143Y-157817914D01*
X211582143Y-157817914D02*
X211486905Y-157865533D01*
X184244642Y-97984580D02*
X184197023Y-98032200D01*
X184197023Y-98032200D02*
X184054166Y-98079819D01*
X184054166Y-98079819D02*
X183958928Y-98079819D01*
X183958928Y-98079819D02*
X183816071Y-98032200D01*
X183816071Y-98032200D02*
X183720833Y-97936961D01*
X183720833Y-97936961D02*
X183673214Y-97841723D01*
X183673214Y-97841723D02*
X183625595Y-97651247D01*
X183625595Y-97651247D02*
X183625595Y-97508390D01*
X183625595Y-97508390D02*
X183673214Y-97317914D01*
X183673214Y-97317914D02*
X183720833Y-97222676D01*
X183720833Y-97222676D02*
X183816071Y-97127438D01*
X183816071Y-97127438D02*
X183958928Y-97079819D01*
X183958928Y-97079819D02*
X184054166Y-97079819D01*
X184054166Y-97079819D02*
X184197023Y-97127438D01*
X184197023Y-97127438D02*
X184244642Y-97175057D01*
X185197023Y-98079819D02*
X184625595Y-98079819D01*
X184911309Y-98079819D02*
X184911309Y-97079819D01*
X184911309Y-97079819D02*
X184816071Y-97222676D01*
X184816071Y-97222676D02*
X184720833Y-97317914D01*
X184720833Y-97317914D02*
X184625595Y-97365533D01*
X185816071Y-97079819D02*
X185911309Y-97079819D01*
X185911309Y-97079819D02*
X186006547Y-97127438D01*
X186006547Y-97127438D02*
X186054166Y-97175057D01*
X186054166Y-97175057D02*
X186101785Y-97270295D01*
X186101785Y-97270295D02*
X186149404Y-97460771D01*
X186149404Y-97460771D02*
X186149404Y-97698866D01*
X186149404Y-97698866D02*
X186101785Y-97889342D01*
X186101785Y-97889342D02*
X186054166Y-97984580D01*
X186054166Y-97984580D02*
X186006547Y-98032200D01*
X186006547Y-98032200D02*
X185911309Y-98079819D01*
X185911309Y-98079819D02*
X185816071Y-98079819D01*
X185816071Y-98079819D02*
X185720833Y-98032200D01*
X185720833Y-98032200D02*
X185673214Y-97984580D01*
X185673214Y-97984580D02*
X185625595Y-97889342D01*
X185625595Y-97889342D02*
X185577976Y-97698866D01*
X185577976Y-97698866D02*
X185577976Y-97460771D01*
X185577976Y-97460771D02*
X185625595Y-97270295D01*
X185625595Y-97270295D02*
X185673214Y-97175057D01*
X185673214Y-97175057D02*
X185720833Y-97127438D01*
X185720833Y-97127438D02*
X185816071Y-97079819D01*
X214066667Y-158507200D02*
X214209524Y-158554819D01*
X214209524Y-158554819D02*
X214447619Y-158554819D01*
X214447619Y-158554819D02*
X214542857Y-158507200D01*
X214542857Y-158507200D02*
X214590476Y-158459580D01*
X214590476Y-158459580D02*
X214638095Y-158364342D01*
X214638095Y-158364342D02*
X214638095Y-158269104D01*
X214638095Y-158269104D02*
X214590476Y-158173866D01*
X214590476Y-158173866D02*
X214542857Y-158126247D01*
X214542857Y-158126247D02*
X214447619Y-158078628D01*
X214447619Y-158078628D02*
X214257143Y-158031009D01*
X214257143Y-158031009D02*
X214161905Y-157983390D01*
X214161905Y-157983390D02*
X214114286Y-157935771D01*
X214114286Y-157935771D02*
X214066667Y-157840533D01*
X214066667Y-157840533D02*
X214066667Y-157745295D01*
X214066667Y-157745295D02*
X214114286Y-157650057D01*
X214114286Y-157650057D02*
X214161905Y-157602438D01*
X214161905Y-157602438D02*
X214257143Y-157554819D01*
X214257143Y-157554819D02*
X214495238Y-157554819D01*
X214495238Y-157554819D02*
X214638095Y-157602438D01*
X214971429Y-157554819D02*
X215209524Y-158554819D01*
X215209524Y-158554819D02*
X215400000Y-157840533D01*
X215400000Y-157840533D02*
X215590476Y-158554819D01*
X215590476Y-158554819D02*
X215828572Y-157554819D01*
X216161905Y-157650057D02*
X216209524Y-157602438D01*
X216209524Y-157602438D02*
X216304762Y-157554819D01*
X216304762Y-157554819D02*
X216542857Y-157554819D01*
X216542857Y-157554819D02*
X216638095Y-157602438D01*
X216638095Y-157602438D02*
X216685714Y-157650057D01*
X216685714Y-157650057D02*
X216733333Y-157745295D01*
X216733333Y-157745295D02*
X216733333Y-157840533D01*
X216733333Y-157840533D02*
X216685714Y-157983390D01*
X216685714Y-157983390D02*
X216114286Y-158554819D01*
X216114286Y-158554819D02*
X216733333Y-158554819D01*
X187038095Y-141054819D02*
X187038095Y-141864342D01*
X187038095Y-141864342D02*
X187085714Y-141959580D01*
X187085714Y-141959580D02*
X187133333Y-142007200D01*
X187133333Y-142007200D02*
X187228571Y-142054819D01*
X187228571Y-142054819D02*
X187419047Y-142054819D01*
X187419047Y-142054819D02*
X187514285Y-142007200D01*
X187514285Y-142007200D02*
X187561904Y-141959580D01*
X187561904Y-141959580D02*
X187609523Y-141864342D01*
X187609523Y-141864342D02*
X187609523Y-141054819D01*
X188038095Y-141150057D02*
X188085714Y-141102438D01*
X188085714Y-141102438D02*
X188180952Y-141054819D01*
X188180952Y-141054819D02*
X188419047Y-141054819D01*
X188419047Y-141054819D02*
X188514285Y-141102438D01*
X188514285Y-141102438D02*
X188561904Y-141150057D01*
X188561904Y-141150057D02*
X188609523Y-141245295D01*
X188609523Y-141245295D02*
X188609523Y-141340533D01*
X188609523Y-141340533D02*
X188561904Y-141483390D01*
X188561904Y-141483390D02*
X187990476Y-142054819D01*
X187990476Y-142054819D02*
X188609523Y-142054819D01*
X206738095Y-128979819D02*
X206738095Y-129789342D01*
X206738095Y-129789342D02*
X206785714Y-129884580D01*
X206785714Y-129884580D02*
X206833333Y-129932200D01*
X206833333Y-129932200D02*
X206928571Y-129979819D01*
X206928571Y-129979819D02*
X207119047Y-129979819D01*
X207119047Y-129979819D02*
X207214285Y-129932200D01*
X207214285Y-129932200D02*
X207261904Y-129884580D01*
X207261904Y-129884580D02*
X207309523Y-129789342D01*
X207309523Y-129789342D02*
X207309523Y-128979819D01*
X208214285Y-129313152D02*
X208214285Y-129979819D01*
X207976190Y-128932200D02*
X207738095Y-129646485D01*
X207738095Y-129646485D02*
X208357142Y-129646485D01*
X192979819Y-134266666D02*
X192979819Y-134742856D01*
X192979819Y-134742856D02*
X191979819Y-134742856D01*
X192979819Y-133409523D02*
X192979819Y-133980951D01*
X192979819Y-133695237D02*
X191979819Y-133695237D01*
X191979819Y-133695237D02*
X192122676Y-133790475D01*
X192122676Y-133790475D02*
X192217914Y-133885713D01*
X192217914Y-133885713D02*
X192265533Y-133980951D01*
X179184580Y-134216666D02*
X179232200Y-134264285D01*
X179232200Y-134264285D02*
X179279819Y-134407142D01*
X179279819Y-134407142D02*
X179279819Y-134502380D01*
X179279819Y-134502380D02*
X179232200Y-134645237D01*
X179232200Y-134645237D02*
X179136961Y-134740475D01*
X179136961Y-134740475D02*
X179041723Y-134788094D01*
X179041723Y-134788094D02*
X178851247Y-134835713D01*
X178851247Y-134835713D02*
X178708390Y-134835713D01*
X178708390Y-134835713D02*
X178517914Y-134788094D01*
X178517914Y-134788094D02*
X178422676Y-134740475D01*
X178422676Y-134740475D02*
X178327438Y-134645237D01*
X178327438Y-134645237D02*
X178279819Y-134502380D01*
X178279819Y-134502380D02*
X178279819Y-134407142D01*
X178279819Y-134407142D02*
X178327438Y-134264285D01*
X178327438Y-134264285D02*
X178375057Y-134216666D01*
X178279819Y-133883332D02*
X178279819Y-133264285D01*
X178279819Y-133264285D02*
X178660771Y-133597618D01*
X178660771Y-133597618D02*
X178660771Y-133454761D01*
X178660771Y-133454761D02*
X178708390Y-133359523D01*
X178708390Y-133359523D02*
X178756009Y-133311904D01*
X178756009Y-133311904D02*
X178851247Y-133264285D01*
X178851247Y-133264285D02*
X179089342Y-133264285D01*
X179089342Y-133264285D02*
X179184580Y-133311904D01*
X179184580Y-133311904D02*
X179232200Y-133359523D01*
X179232200Y-133359523D02*
X179279819Y-133454761D01*
X179279819Y-133454761D02*
X179279819Y-133740475D01*
X179279819Y-133740475D02*
X179232200Y-133835713D01*
X179232200Y-133835713D02*
X179184580Y-133883332D01*
X201929819Y-146816666D02*
X201453628Y-147149999D01*
X201929819Y-147388094D02*
X200929819Y-147388094D01*
X200929819Y-147388094D02*
X200929819Y-147007142D01*
X200929819Y-147007142D02*
X200977438Y-146911904D01*
X200977438Y-146911904D02*
X201025057Y-146864285D01*
X201025057Y-146864285D02*
X201120295Y-146816666D01*
X201120295Y-146816666D02*
X201263152Y-146816666D01*
X201263152Y-146816666D02*
X201358390Y-146864285D01*
X201358390Y-146864285D02*
X201406009Y-146911904D01*
X201406009Y-146911904D02*
X201453628Y-147007142D01*
X201453628Y-147007142D02*
X201453628Y-147388094D01*
X201263152Y-145959523D02*
X201929819Y-145959523D01*
X200882200Y-146197618D02*
X201596485Y-146435713D01*
X201596485Y-146435713D02*
X201596485Y-145816666D01*
X185384580Y-89366666D02*
X185432200Y-89414285D01*
X185432200Y-89414285D02*
X185479819Y-89557142D01*
X185479819Y-89557142D02*
X185479819Y-89652380D01*
X185479819Y-89652380D02*
X185432200Y-89795237D01*
X185432200Y-89795237D02*
X185336961Y-89890475D01*
X185336961Y-89890475D02*
X185241723Y-89938094D01*
X185241723Y-89938094D02*
X185051247Y-89985713D01*
X185051247Y-89985713D02*
X184908390Y-89985713D01*
X184908390Y-89985713D02*
X184717914Y-89938094D01*
X184717914Y-89938094D02*
X184622676Y-89890475D01*
X184622676Y-89890475D02*
X184527438Y-89795237D01*
X184527438Y-89795237D02*
X184479819Y-89652380D01*
X184479819Y-89652380D02*
X184479819Y-89557142D01*
X184479819Y-89557142D02*
X184527438Y-89414285D01*
X184527438Y-89414285D02*
X184575057Y-89366666D01*
X184908390Y-88795237D02*
X184860771Y-88890475D01*
X184860771Y-88890475D02*
X184813152Y-88938094D01*
X184813152Y-88938094D02*
X184717914Y-88985713D01*
X184717914Y-88985713D02*
X184670295Y-88985713D01*
X184670295Y-88985713D02*
X184575057Y-88938094D01*
X184575057Y-88938094D02*
X184527438Y-88890475D01*
X184527438Y-88890475D02*
X184479819Y-88795237D01*
X184479819Y-88795237D02*
X184479819Y-88604761D01*
X184479819Y-88604761D02*
X184527438Y-88509523D01*
X184527438Y-88509523D02*
X184575057Y-88461904D01*
X184575057Y-88461904D02*
X184670295Y-88414285D01*
X184670295Y-88414285D02*
X184717914Y-88414285D01*
X184717914Y-88414285D02*
X184813152Y-88461904D01*
X184813152Y-88461904D02*
X184860771Y-88509523D01*
X184860771Y-88509523D02*
X184908390Y-88604761D01*
X184908390Y-88604761D02*
X184908390Y-88795237D01*
X184908390Y-88795237D02*
X184956009Y-88890475D01*
X184956009Y-88890475D02*
X185003628Y-88938094D01*
X185003628Y-88938094D02*
X185098866Y-88985713D01*
X185098866Y-88985713D02*
X185289342Y-88985713D01*
X185289342Y-88985713D02*
X185384580Y-88938094D01*
X185384580Y-88938094D02*
X185432200Y-88890475D01*
X185432200Y-88890475D02*
X185479819Y-88795237D01*
X185479819Y-88795237D02*
X185479819Y-88604761D01*
X185479819Y-88604761D02*
X185432200Y-88509523D01*
X185432200Y-88509523D02*
X185384580Y-88461904D01*
X185384580Y-88461904D02*
X185289342Y-88414285D01*
X185289342Y-88414285D02*
X185098866Y-88414285D01*
X185098866Y-88414285D02*
X185003628Y-88461904D01*
X185003628Y-88461904D02*
X184956009Y-88509523D01*
X184956009Y-88509523D02*
X184908390Y-88604761D01*
X192084580Y-145086666D02*
X192132200Y-145134285D01*
X192132200Y-145134285D02*
X192179819Y-145277142D01*
X192179819Y-145277142D02*
X192179819Y-145372380D01*
X192179819Y-145372380D02*
X192132200Y-145515237D01*
X192132200Y-145515237D02*
X192036961Y-145610475D01*
X192036961Y-145610475D02*
X191941723Y-145658094D01*
X191941723Y-145658094D02*
X191751247Y-145705713D01*
X191751247Y-145705713D02*
X191608390Y-145705713D01*
X191608390Y-145705713D02*
X191417914Y-145658094D01*
X191417914Y-145658094D02*
X191322676Y-145610475D01*
X191322676Y-145610475D02*
X191227438Y-145515237D01*
X191227438Y-145515237D02*
X191179819Y-145372380D01*
X191179819Y-145372380D02*
X191179819Y-145277142D01*
X191179819Y-145277142D02*
X191227438Y-145134285D01*
X191227438Y-145134285D02*
X191275057Y-145086666D01*
X192179819Y-144134285D02*
X192179819Y-144705713D01*
X192179819Y-144419999D02*
X191179819Y-144419999D01*
X191179819Y-144419999D02*
X191322676Y-144515237D01*
X191322676Y-144515237D02*
X191417914Y-144610475D01*
X191417914Y-144610475D02*
X191465533Y-144705713D01*
X198469819Y-146791666D02*
X197993628Y-147124999D01*
X198469819Y-147363094D02*
X197469819Y-147363094D01*
X197469819Y-147363094D02*
X197469819Y-146982142D01*
X197469819Y-146982142D02*
X197517438Y-146886904D01*
X197517438Y-146886904D02*
X197565057Y-146839285D01*
X197565057Y-146839285D02*
X197660295Y-146791666D01*
X197660295Y-146791666D02*
X197803152Y-146791666D01*
X197803152Y-146791666D02*
X197898390Y-146839285D01*
X197898390Y-146839285D02*
X197946009Y-146886904D01*
X197946009Y-146886904D02*
X197993628Y-146982142D01*
X197993628Y-146982142D02*
X197993628Y-147363094D01*
X197469819Y-146458332D02*
X197469819Y-145839285D01*
X197469819Y-145839285D02*
X197850771Y-146172618D01*
X197850771Y-146172618D02*
X197850771Y-146029761D01*
X197850771Y-146029761D02*
X197898390Y-145934523D01*
X197898390Y-145934523D02*
X197946009Y-145886904D01*
X197946009Y-145886904D02*
X198041247Y-145839285D01*
X198041247Y-145839285D02*
X198279342Y-145839285D01*
X198279342Y-145839285D02*
X198374580Y-145886904D01*
X198374580Y-145886904D02*
X198422200Y-145934523D01*
X198422200Y-145934523D02*
X198469819Y-146029761D01*
X198469819Y-146029761D02*
X198469819Y-146315475D01*
X198469819Y-146315475D02*
X198422200Y-146410713D01*
X198422200Y-146410713D02*
X198374580Y-146458332D01*
X179683333Y-127284580D02*
X179635714Y-127332200D01*
X179635714Y-127332200D02*
X179492857Y-127379819D01*
X179492857Y-127379819D02*
X179397619Y-127379819D01*
X179397619Y-127379819D02*
X179254762Y-127332200D01*
X179254762Y-127332200D02*
X179159524Y-127236961D01*
X179159524Y-127236961D02*
X179111905Y-127141723D01*
X179111905Y-127141723D02*
X179064286Y-126951247D01*
X179064286Y-126951247D02*
X179064286Y-126808390D01*
X179064286Y-126808390D02*
X179111905Y-126617914D01*
X179111905Y-126617914D02*
X179159524Y-126522676D01*
X179159524Y-126522676D02*
X179254762Y-126427438D01*
X179254762Y-126427438D02*
X179397619Y-126379819D01*
X179397619Y-126379819D02*
X179492857Y-126379819D01*
X179492857Y-126379819D02*
X179635714Y-126427438D01*
X179635714Y-126427438D02*
X179683333Y-126475057D01*
X180540476Y-126713152D02*
X180540476Y-127379819D01*
X180302381Y-126332200D02*
X180064286Y-127046485D01*
X180064286Y-127046485D02*
X180683333Y-127046485D01*
X192379819Y-150213094D02*
X191379819Y-150213094D01*
X191379819Y-150213094D02*
X191379819Y-149974999D01*
X191379819Y-149974999D02*
X191427438Y-149832142D01*
X191427438Y-149832142D02*
X191522676Y-149736904D01*
X191522676Y-149736904D02*
X191617914Y-149689285D01*
X191617914Y-149689285D02*
X191808390Y-149641666D01*
X191808390Y-149641666D02*
X191951247Y-149641666D01*
X191951247Y-149641666D02*
X192141723Y-149689285D01*
X192141723Y-149689285D02*
X192236961Y-149736904D01*
X192236961Y-149736904D02*
X192332200Y-149832142D01*
X192332200Y-149832142D02*
X192379819Y-149974999D01*
X192379819Y-149974999D02*
X192379819Y-150213094D01*
X191475057Y-149260713D02*
X191427438Y-149213094D01*
X191427438Y-149213094D02*
X191379819Y-149117856D01*
X191379819Y-149117856D02*
X191379819Y-148879761D01*
X191379819Y-148879761D02*
X191427438Y-148784523D01*
X191427438Y-148784523D02*
X191475057Y-148736904D01*
X191475057Y-148736904D02*
X191570295Y-148689285D01*
X191570295Y-148689285D02*
X191665533Y-148689285D01*
X191665533Y-148689285D02*
X191808390Y-148736904D01*
X191808390Y-148736904D02*
X192379819Y-149308332D01*
X192379819Y-149308332D02*
X192379819Y-148689285D01*
X184334580Y-109891666D02*
X184382200Y-109939285D01*
X184382200Y-109939285D02*
X184429819Y-110082142D01*
X184429819Y-110082142D02*
X184429819Y-110177380D01*
X184429819Y-110177380D02*
X184382200Y-110320237D01*
X184382200Y-110320237D02*
X184286961Y-110415475D01*
X184286961Y-110415475D02*
X184191723Y-110463094D01*
X184191723Y-110463094D02*
X184001247Y-110510713D01*
X184001247Y-110510713D02*
X183858390Y-110510713D01*
X183858390Y-110510713D02*
X183667914Y-110463094D01*
X183667914Y-110463094D02*
X183572676Y-110415475D01*
X183572676Y-110415475D02*
X183477438Y-110320237D01*
X183477438Y-110320237D02*
X183429819Y-110177380D01*
X183429819Y-110177380D02*
X183429819Y-110082142D01*
X183429819Y-110082142D02*
X183477438Y-109939285D01*
X183477438Y-109939285D02*
X183525057Y-109891666D01*
X183429819Y-109034523D02*
X183429819Y-109224999D01*
X183429819Y-109224999D02*
X183477438Y-109320237D01*
X183477438Y-109320237D02*
X183525057Y-109367856D01*
X183525057Y-109367856D02*
X183667914Y-109463094D01*
X183667914Y-109463094D02*
X183858390Y-109510713D01*
X183858390Y-109510713D02*
X184239342Y-109510713D01*
X184239342Y-109510713D02*
X184334580Y-109463094D01*
X184334580Y-109463094D02*
X184382200Y-109415475D01*
X184382200Y-109415475D02*
X184429819Y-109320237D01*
X184429819Y-109320237D02*
X184429819Y-109129761D01*
X184429819Y-109129761D02*
X184382200Y-109034523D01*
X184382200Y-109034523D02*
X184334580Y-108986904D01*
X184334580Y-108986904D02*
X184239342Y-108939285D01*
X184239342Y-108939285D02*
X184001247Y-108939285D01*
X184001247Y-108939285D02*
X183906009Y-108986904D01*
X183906009Y-108986904D02*
X183858390Y-109034523D01*
X183858390Y-109034523D02*
X183810771Y-109129761D01*
X183810771Y-109129761D02*
X183810771Y-109320237D01*
X183810771Y-109320237D02*
X183858390Y-109415475D01*
X183858390Y-109415475D02*
X183906009Y-109463094D01*
X183906009Y-109463094D02*
X184001247Y-109510713D01*
X177229819Y-101358333D02*
X177944104Y-101358333D01*
X177944104Y-101358333D02*
X178086961Y-101405952D01*
X178086961Y-101405952D02*
X178182200Y-101501190D01*
X178182200Y-101501190D02*
X178229819Y-101644047D01*
X178229819Y-101644047D02*
X178229819Y-101739285D01*
X177229819Y-100977380D02*
X177229819Y-100358333D01*
X177229819Y-100358333D02*
X177610771Y-100691666D01*
X177610771Y-100691666D02*
X177610771Y-100548809D01*
X177610771Y-100548809D02*
X177658390Y-100453571D01*
X177658390Y-100453571D02*
X177706009Y-100405952D01*
X177706009Y-100405952D02*
X177801247Y-100358333D01*
X177801247Y-100358333D02*
X178039342Y-100358333D01*
X178039342Y-100358333D02*
X178134580Y-100405952D01*
X178134580Y-100405952D02*
X178182200Y-100453571D01*
X178182200Y-100453571D02*
X178229819Y-100548809D01*
X178229819Y-100548809D02*
X178229819Y-100834523D01*
X178229819Y-100834523D02*
X178182200Y-100929761D01*
X178182200Y-100929761D02*
X178134580Y-100977380D01*
X193459580Y-126942857D02*
X193507200Y-126990476D01*
X193507200Y-126990476D02*
X193554819Y-127133333D01*
X193554819Y-127133333D02*
X193554819Y-127228571D01*
X193554819Y-127228571D02*
X193507200Y-127371428D01*
X193507200Y-127371428D02*
X193411961Y-127466666D01*
X193411961Y-127466666D02*
X193316723Y-127514285D01*
X193316723Y-127514285D02*
X193126247Y-127561904D01*
X193126247Y-127561904D02*
X192983390Y-127561904D01*
X192983390Y-127561904D02*
X192792914Y-127514285D01*
X192792914Y-127514285D02*
X192697676Y-127466666D01*
X192697676Y-127466666D02*
X192602438Y-127371428D01*
X192602438Y-127371428D02*
X192554819Y-127228571D01*
X192554819Y-127228571D02*
X192554819Y-127133333D01*
X192554819Y-127133333D02*
X192602438Y-126990476D01*
X192602438Y-126990476D02*
X192650057Y-126942857D01*
X193554819Y-125990476D02*
X193554819Y-126561904D01*
X193554819Y-126276190D02*
X192554819Y-126276190D01*
X192554819Y-126276190D02*
X192697676Y-126371428D01*
X192697676Y-126371428D02*
X192792914Y-126466666D01*
X192792914Y-126466666D02*
X192840533Y-126561904D01*
X192650057Y-125609523D02*
X192602438Y-125561904D01*
X192602438Y-125561904D02*
X192554819Y-125466666D01*
X192554819Y-125466666D02*
X192554819Y-125228571D01*
X192554819Y-125228571D02*
X192602438Y-125133333D01*
X192602438Y-125133333D02*
X192650057Y-125085714D01*
X192650057Y-125085714D02*
X192745295Y-125038095D01*
X192745295Y-125038095D02*
X192840533Y-125038095D01*
X192840533Y-125038095D02*
X192983390Y-125085714D01*
X192983390Y-125085714D02*
X193554819Y-125657142D01*
X193554819Y-125657142D02*
X193554819Y-125038095D01*
X213704761Y-133650057D02*
X213609523Y-133602438D01*
X213609523Y-133602438D02*
X213514285Y-133507200D01*
X213514285Y-133507200D02*
X213371428Y-133364342D01*
X213371428Y-133364342D02*
X213276190Y-133316723D01*
X213276190Y-133316723D02*
X213180952Y-133316723D01*
X213228571Y-133554819D02*
X213133333Y-133507200D01*
X213133333Y-133507200D02*
X213038095Y-133411961D01*
X213038095Y-133411961D02*
X212990476Y-133221485D01*
X212990476Y-133221485D02*
X212990476Y-132888152D01*
X212990476Y-132888152D02*
X213038095Y-132697676D01*
X213038095Y-132697676D02*
X213133333Y-132602438D01*
X213133333Y-132602438D02*
X213228571Y-132554819D01*
X213228571Y-132554819D02*
X213419047Y-132554819D01*
X213419047Y-132554819D02*
X213514285Y-132602438D01*
X213514285Y-132602438D02*
X213609523Y-132697676D01*
X213609523Y-132697676D02*
X213657142Y-132888152D01*
X213657142Y-132888152D02*
X213657142Y-133221485D01*
X213657142Y-133221485D02*
X213609523Y-133411961D01*
X213609523Y-133411961D02*
X213514285Y-133507200D01*
X213514285Y-133507200D02*
X213419047Y-133554819D01*
X213419047Y-133554819D02*
X213228571Y-133554819D01*
X214609523Y-133554819D02*
X214038095Y-133554819D01*
X214323809Y-133554819D02*
X214323809Y-132554819D01*
X214323809Y-132554819D02*
X214228571Y-132697676D01*
X214228571Y-132697676D02*
X214133333Y-132792914D01*
X214133333Y-132792914D02*
X214038095Y-132840533D01*
X181233333Y-93604819D02*
X180900000Y-93128628D01*
X180661905Y-93604819D02*
X180661905Y-92604819D01*
X180661905Y-92604819D02*
X181042857Y-92604819D01*
X181042857Y-92604819D02*
X181138095Y-92652438D01*
X181138095Y-92652438D02*
X181185714Y-92700057D01*
X181185714Y-92700057D02*
X181233333Y-92795295D01*
X181233333Y-92795295D02*
X181233333Y-92938152D01*
X181233333Y-92938152D02*
X181185714Y-93033390D01*
X181185714Y-93033390D02*
X181138095Y-93081009D01*
X181138095Y-93081009D02*
X181042857Y-93128628D01*
X181042857Y-93128628D02*
X180661905Y-93128628D01*
X182138095Y-92604819D02*
X181661905Y-92604819D01*
X181661905Y-92604819D02*
X181614286Y-93081009D01*
X181614286Y-93081009D02*
X181661905Y-93033390D01*
X181661905Y-93033390D02*
X181757143Y-92985771D01*
X181757143Y-92985771D02*
X181995238Y-92985771D01*
X181995238Y-92985771D02*
X182090476Y-93033390D01*
X182090476Y-93033390D02*
X182138095Y-93081009D01*
X182138095Y-93081009D02*
X182185714Y-93176247D01*
X182185714Y-93176247D02*
X182185714Y-93414342D01*
X182185714Y-93414342D02*
X182138095Y-93509580D01*
X182138095Y-93509580D02*
X182090476Y-93557200D01*
X182090476Y-93557200D02*
X181995238Y-93604819D01*
X181995238Y-93604819D02*
X181757143Y-93604819D01*
X181757143Y-93604819D02*
X181661905Y-93557200D01*
X181661905Y-93557200D02*
X181614286Y-93509580D01*
X185799819Y-134291666D02*
X185323628Y-134624999D01*
X185799819Y-134863094D02*
X184799819Y-134863094D01*
X184799819Y-134863094D02*
X184799819Y-134482142D01*
X184799819Y-134482142D02*
X184847438Y-134386904D01*
X184847438Y-134386904D02*
X184895057Y-134339285D01*
X184895057Y-134339285D02*
X184990295Y-134291666D01*
X184990295Y-134291666D02*
X185133152Y-134291666D01*
X185133152Y-134291666D02*
X185228390Y-134339285D01*
X185228390Y-134339285D02*
X185276009Y-134386904D01*
X185276009Y-134386904D02*
X185323628Y-134482142D01*
X185323628Y-134482142D02*
X185323628Y-134863094D01*
X184895057Y-133910713D02*
X184847438Y-133863094D01*
X184847438Y-133863094D02*
X184799819Y-133767856D01*
X184799819Y-133767856D02*
X184799819Y-133529761D01*
X184799819Y-133529761D02*
X184847438Y-133434523D01*
X184847438Y-133434523D02*
X184895057Y-133386904D01*
X184895057Y-133386904D02*
X184990295Y-133339285D01*
X184990295Y-133339285D02*
X185085533Y-133339285D01*
X185085533Y-133339285D02*
X185228390Y-133386904D01*
X185228390Y-133386904D02*
X185799819Y-133958332D01*
X185799819Y-133958332D02*
X185799819Y-133339285D01*
X182904819Y-139341666D02*
X182428628Y-139674999D01*
X182904819Y-139913094D02*
X181904819Y-139913094D01*
X181904819Y-139913094D02*
X181904819Y-139532142D01*
X181904819Y-139532142D02*
X181952438Y-139436904D01*
X181952438Y-139436904D02*
X182000057Y-139389285D01*
X182000057Y-139389285D02*
X182095295Y-139341666D01*
X182095295Y-139341666D02*
X182238152Y-139341666D01*
X182238152Y-139341666D02*
X182333390Y-139389285D01*
X182333390Y-139389285D02*
X182381009Y-139436904D01*
X182381009Y-139436904D02*
X182428628Y-139532142D01*
X182428628Y-139532142D02*
X182428628Y-139913094D01*
X182904819Y-138389285D02*
X182904819Y-138960713D01*
X182904819Y-138674999D02*
X181904819Y-138674999D01*
X181904819Y-138674999D02*
X182047676Y-138770237D01*
X182047676Y-138770237D02*
X182142914Y-138865475D01*
X182142914Y-138865475D02*
X182190533Y-138960713D01*
D11*
%TO.C,J4*%
X187275000Y-153650000D02*
X187275000Y-162650000D01*
X178075000Y-148050000D02*
X180875000Y-148050000D01*
X177835000Y-149550000D02*
X177835000Y-147810000D01*
X187275000Y-148050000D02*
X187275000Y-150050000D01*
X178075000Y-162650000D02*
X178075000Y-148050000D01*
X187275000Y-162650000D02*
X178075000Y-162650000D01*
X184475000Y-148050000D02*
X187275000Y-148050000D01*
X177835000Y-147810000D02*
X179575000Y-147810000D01*
%TO.C,C2*%
X187985000Y-133413748D02*
X187985000Y-134836252D01*
X186165000Y-133413748D02*
X186165000Y-134836252D01*
%TO.C,J1*%
X218815000Y-86890000D02*
X216315000Y-86890000D01*
X216315000Y-86890000D02*
X216315000Y-89390000D01*
X220635000Y-87190000D02*
X216615000Y-87190000D01*
X218925000Y-87190000D02*
X218925000Y-87690000D01*
X218115000Y-87190000D02*
X218115000Y-88190000D01*
X216615000Y-87190000D02*
X216615000Y-124910000D01*
X220135000Y-87690000D02*
X220135000Y-124410000D01*
X218925000Y-87690000D02*
X220135000Y-87690000D01*
X218115000Y-88190000D02*
X216615000Y-88190000D01*
X218115000Y-123910000D02*
X216615000Y-123910000D01*
X220135000Y-124410000D02*
X218925000Y-124410000D01*
X218925000Y-124410000D02*
X218925000Y-124910000D01*
X220635000Y-124910000D02*
X220635000Y-87190000D01*
X218115000Y-124910000D02*
X218115000Y-123910000D01*
X216615000Y-124910000D02*
X220635000Y-124910000D01*
%TO.C,C9*%
X182290000Y-89923752D02*
X182290000Y-88501248D01*
X184110000Y-89923752D02*
X184110000Y-88501248D01*
%TO.C,Q2*%
X217690000Y-130237500D02*
X217690000Y-131912500D01*
X217690000Y-130237500D02*
X217690000Y-129587500D01*
X220810000Y-130237500D02*
X220810000Y-130887500D01*
X220810000Y-130237500D02*
X220810000Y-129587500D01*
%TO.C,C7*%
X178415000Y-114036252D02*
X178415000Y-112613748D01*
X180235000Y-114036252D02*
X180235000Y-112613748D01*
D12*
%TO.C,U3*%
X178675000Y-119550000D02*
X178675000Y-119845000D01*
X178675000Y-119550000D02*
X178970000Y-119550000D01*
X178675000Y-122550000D02*
X178675000Y-122255000D01*
X178675000Y-122550000D02*
X178970000Y-122550000D01*
X181675000Y-119550000D02*
X181380000Y-119550000D01*
X181675000Y-119550000D02*
X181675000Y-119845000D01*
X181675000Y-122550000D02*
X181380000Y-122550000D01*
X181675000Y-122550000D02*
X181675000Y-122255000D01*
D13*
X177800000Y-120300000D02*
G75*
G03*
X177800000Y-120300000I-100000J0D01*
G01*
D11*
%TO.C,R6*%
X219360000Y-148247936D02*
X219360000Y-149702064D01*
X217540000Y-148247936D02*
X217540000Y-149702064D01*
%TO.C,D1*%
X193425000Y-139435000D02*
X196725000Y-139435000D01*
X193425000Y-139435000D02*
X193425000Y-132425000D01*
X196725000Y-139435000D02*
X196725000Y-132425000D01*
%TO.C,C5*%
X179138748Y-123965000D02*
X180561252Y-123965000D01*
X179138748Y-125785000D02*
X180561252Y-125785000D01*
%TO.C,C11*%
X208436252Y-144860000D02*
X207013748Y-144860000D01*
X208436252Y-143040000D02*
X207013748Y-143040000D01*
%TO.C,C13*%
X208423752Y-149410000D02*
X207001248Y-149410000D01*
X208423752Y-147590000D02*
X207001248Y-147590000D01*
%TO.C,U1*%
X189800000Y-80550000D02*
X189800000Y-87300000D01*
X189800000Y-80550000D02*
X207800000Y-80550000D01*
X189800000Y-105300000D02*
X189800000Y-106050000D01*
X189800000Y-106050000D02*
X190550000Y-106050000D01*
X190550000Y-106050000D02*
X192300000Y-106050000D01*
X207050000Y-106050000D02*
X205300000Y-106050000D01*
X207800000Y-80550000D02*
X207800000Y-87300000D01*
X207800000Y-86490000D02*
X189800000Y-86490000D01*
X207800000Y-105300000D02*
X207800000Y-106050000D01*
X207800000Y-106050000D02*
X207050000Y-106050000D01*
%TO.C,SW1*%
X212100000Y-153100000D02*
X212100000Y-156400000D01*
X211800000Y-153100000D02*
X212100000Y-153100000D01*
X209600000Y-153100000D02*
X209300000Y-153100000D01*
X209300000Y-153100000D02*
X209300000Y-156400000D01*
X212100000Y-156400000D02*
X211800000Y-156400000D01*
X209300000Y-156400000D02*
X209600000Y-156400000D01*
%TO.C,C10*%
X185598752Y-96685000D02*
X184176248Y-96685000D01*
X185598752Y-94865000D02*
X184176248Y-94865000D01*
%TO.C,SW2*%
X216800000Y-153050000D02*
X216800000Y-156350000D01*
X216500000Y-153050000D02*
X216800000Y-153050000D01*
X214300000Y-153050000D02*
X214000000Y-153050000D01*
X214000000Y-153050000D02*
X214000000Y-156350000D01*
X216800000Y-156350000D02*
X216500000Y-156350000D01*
X214000000Y-156350000D02*
X214300000Y-156350000D01*
%TO.C,U2*%
X187496000Y-146900000D02*
X187496000Y-142259000D01*
X187496000Y-146900000D02*
X177255000Y-146900000D01*
X187496000Y-145390000D02*
X177255000Y-145390000D01*
X187496000Y-142259000D02*
X177255000Y-142259000D01*
X184225000Y-146900000D02*
X184225000Y-145390000D01*
X180525000Y-146900000D02*
X180525000Y-145390000D01*
X177255000Y-146900000D02*
X177255000Y-142259000D01*
%TO.C,U4*%
X207500000Y-130365000D02*
X204050000Y-130365000D01*
X207500000Y-130365000D02*
X209450000Y-130365000D01*
X207500000Y-140485000D02*
X205550000Y-140485000D01*
X207500000Y-140485000D02*
X209450000Y-140485000D01*
%TO.C,L1*%
X189765000Y-134702064D02*
X189765000Y-133497936D01*
X191585000Y-134702064D02*
X191585000Y-133497936D01*
%TO.C,C3*%
X181610000Y-133313748D02*
X181610000Y-134736252D01*
X179790000Y-133313748D02*
X179790000Y-134736252D01*
%TO.C,R4*%
X200565000Y-147377064D02*
X200565000Y-145922936D01*
X202385000Y-147377064D02*
X202385000Y-145922936D01*
%TO.C,C8*%
X185890000Y-89923752D02*
X185890000Y-88501248D01*
X187710000Y-89923752D02*
X187710000Y-88501248D01*
%TO.C,C1*%
X188990000Y-145636252D02*
X188990000Y-144213748D01*
X190810000Y-145636252D02*
X190810000Y-144213748D01*
%TO.C,R3*%
X197090000Y-147377064D02*
X197090000Y-145922936D01*
X198910000Y-147377064D02*
X198910000Y-145922936D01*
%TO.C,C4*%
X179138748Y-127865000D02*
X180561252Y-127865000D01*
X179138748Y-129685000D02*
X180561252Y-129685000D01*
%TO.C,D2*%
X196275000Y-141490000D02*
X192975000Y-141490000D01*
X196275000Y-141490000D02*
X196275000Y-148500000D01*
X192975000Y-141490000D02*
X192975000Y-148500000D01*
%TO.C,C6*%
X182040000Y-113961252D02*
X182040000Y-112538748D01*
X183860000Y-113961252D02*
X183860000Y-112538748D01*
%TO.C,J3*%
X179515000Y-101990000D02*
X177015000Y-101990000D01*
X177015000Y-101990000D02*
X177015000Y-104490000D01*
X181335000Y-102290000D02*
X177315000Y-102290000D01*
X179625000Y-102290000D02*
X179625000Y-102790000D01*
X178815000Y-102290000D02*
X178815000Y-103290000D01*
X177315000Y-102290000D02*
X177315000Y-110010000D01*
X180835000Y-102790000D02*
X180835000Y-109510000D01*
X179625000Y-102790000D02*
X180835000Y-102790000D01*
X178815000Y-103290000D02*
X177315000Y-103290000D01*
X178815000Y-109010000D02*
X177315000Y-109010000D01*
X180835000Y-109510000D02*
X179625000Y-109510000D01*
X179625000Y-109510000D02*
X179625000Y-110010000D01*
X181335000Y-110010000D02*
X181335000Y-102290000D01*
X178815000Y-110010000D02*
X178815000Y-109010000D01*
X177315000Y-110010000D02*
X181335000Y-110010000D01*
%TO.C,C12*%
X194040000Y-127011252D02*
X194040000Y-125588748D01*
X195860000Y-127011252D02*
X195860000Y-125588748D01*
%TO.C,Q1*%
X212840000Y-130237500D02*
X212840000Y-131912500D01*
X212840000Y-130237500D02*
X212840000Y-129587500D01*
X215960000Y-130237500D02*
X215960000Y-130887500D01*
X215960000Y-130237500D02*
X215960000Y-129587500D01*
%TO.C,R5*%
X184197936Y-92240000D02*
X185652064Y-92240000D01*
X184197936Y-94060000D02*
X185652064Y-94060000D01*
%TO.C,R2*%
X184435000Y-133397936D02*
X184435000Y-134852064D01*
X182615000Y-133397936D02*
X182615000Y-134852064D01*
%TO.C,R1*%
X179765000Y-139927064D02*
X179765000Y-138472936D01*
X181585000Y-139927064D02*
X181585000Y-138472936D01*
%TD*%
M02*
