%TF.GenerationSoftware,KiCad,Pcbnew,7.0.8*%
%TF.CreationDate,2025-04-01T23:17:51+07:00*%
%TF.ProjectId,esp32_smth,65737033-325f-4736-9d74-682e6b696361,rev?*%
%TF.SameCoordinates,Original*%
%TF.FileFunction,Copper,L2,Bot*%
%TF.FilePolarity,Positive*%
%FSLAX46Y46*%
G04 Gerber Fmt 4.6, Leading zero omitted, Abs format (unit mm)*
G04 Created by KiCad (PCBNEW 7.0.8) date 2025-04-01 23:17:51*
%MOMM*%
%LPD*%
G01*
G04 APERTURE LIST*
G04 Aperture macros list*
%AMRoundRect*
0 Rectangle with rounded corners*
0 $1 Rounding radius*
0 $2 $3 $4 $5 $6 $7 $8 $9 X,Y pos of 4 corners*
0 Add a 4 corners polygon primitive as box body*
4,1,4,$2,$3,$4,$5,$6,$7,$8,$9,$2,$3,0*
0 Add four circle primitives for the rounded corners*
1,1,$1+$1,$2,$3*
1,1,$1+$1,$4,$5*
1,1,$1+$1,$6,$7*
1,1,$1+$1,$8,$9*
0 Add four rect primitives between the rounded corners*
20,1,$1+$1,$2,$3,$4,$5,0*
20,1,$1+$1,$4,$5,$6,$7,0*
20,1,$1+$1,$6,$7,$8,$9,0*
20,1,$1+$1,$8,$9,$2,$3,0*%
G04 Aperture macros list end*
%TA.AperFunction,ComponentPad*%
%ADD10R,2.600000X2.600000*%
%TD*%
%TA.AperFunction,ComponentPad*%
%ADD11C,2.600000*%
%TD*%
%TA.AperFunction,ComponentPad*%
%ADD12O,1.200000X2.250000*%
%TD*%
%TA.AperFunction,ComponentPad*%
%ADD13RoundRect,0.250000X-0.725000X0.600000X-0.725000X-0.600000X0.725000X-0.600000X0.725000X0.600000X0*%
%TD*%
%TA.AperFunction,ComponentPad*%
%ADD14O,1.950000X1.700000*%
%TD*%
%TA.AperFunction,ComponentPad*%
%ADD15R,1.275000X1.800000*%
%TD*%
%TA.AperFunction,ComponentPad*%
%ADD16O,1.275000X1.800000*%
%TD*%
%TA.AperFunction,ComponentPad*%
%ADD17RoundRect,0.250000X-0.750000X0.600000X-0.750000X-0.600000X0.750000X-0.600000X0.750000X0.600000X0*%
%TD*%
%TA.AperFunction,ComponentPad*%
%ADD18O,2.000000X1.700000*%
%TD*%
%TA.AperFunction,ViaPad*%
%ADD19C,0.800000*%
%TD*%
%TA.AperFunction,Conductor*%
%ADD20C,0.250000*%
%TD*%
G04 APERTURE END LIST*
D10*
%TO.P,J4,1*%
%TO.N,VCC*%
X182675000Y-148850000D03*
D11*
%TO.P,J4,2*%
%TO.N,GND*%
X182675000Y-154850000D03*
%TO.P,J4,3*%
%TO.N,N/C*%
X187375000Y-151850000D03*
%TD*%
D12*
%TO.P,J2,S1,SHIELD*%
%TO.N,GND*%
X193690000Y-157252500D03*
X193710000Y-152652500D03*
X204840000Y-157252500D03*
X204860000Y-152652500D03*
%TD*%
D13*
%TO.P,J1,1,Pin_1*%
%TO.N,MOSI*%
X218925000Y-89800000D03*
D14*
%TO.P,J1,2,Pin_2*%
%TO.N,MISO*%
X218925000Y-92300000D03*
%TO.P,J1,3,Pin_3*%
%TO.N,PWR*%
X218925000Y-94800000D03*
%TO.P,J1,4,Pin_4*%
%TO.N,DC*%
X218925000Y-97300000D03*
%TO.P,J1,5,Pin_5*%
%TO.N,RESET*%
X218925000Y-99800000D03*
%TO.P,J1,6,Pin_6*%
%TO.N,SCLK*%
X218925000Y-102300000D03*
%TO.P,J1,7,Pin_7*%
%TO.N,CS*%
X218925000Y-104800000D03*
%TO.P,J1,8,Pin_8*%
%TO.N,CS2*%
X218925000Y-107300000D03*
%TO.P,J1,9,Pin_9*%
%TO.N,unconnected-(J1-Pin_9-Pad9)*%
X218925000Y-109800000D03*
%TO.P,J1,10,Pin_10*%
%TO.N,unconnected-(J1-Pin_10-Pad10)*%
X218925000Y-112300000D03*
%TO.P,J1,11,Pin_11*%
%TO.N,unconnected-(J1-Pin_11-Pad11)*%
X218925000Y-114800000D03*
%TO.P,J1,12,Pin_12*%
%TO.N,unconnected-(J1-Pin_12-Pad12)*%
X218925000Y-117300000D03*
%TO.P,J1,13,Pin_13*%
%TO.N,PWR*%
X218925000Y-119800000D03*
%TO.P,J1,14,Pin_14*%
%TO.N,GND*%
X218925000Y-122300000D03*
%TD*%
D15*
%TO.P,U2,1,VIN*%
%TO.N,VCC*%
X185775000Y-143630000D03*
D16*
%TO.P,U2,2,OUT*%
%TO.N,Net-(D1-K)*%
X184075000Y-143630000D03*
%TO.P,U2,3,GND*%
%TO.N,GND*%
X182375000Y-143630000D03*
%TO.P,U2,4,FB*%
%TO.N,Net-(U2-FB)*%
X180675000Y-143630000D03*
%TO.P,U2,5,~{ON}/OFF*%
%TO.N,GND*%
X178975000Y-143630000D03*
%TD*%
D17*
%TO.P,J3,1,Pin_1*%
%TO.N,Net-(J3-Pin_2)*%
X179625000Y-104900000D03*
D18*
%TO.P,J3,2,Pin_2*%
%TO.N,Net-(J3-Pin_1)*%
X179625000Y-107400000D03*
%TD*%
D19*
%TO.N,GND*%
X201175000Y-94275000D03*
X206975000Y-152700000D03*
X191525000Y-152750000D03*
X179775000Y-146325000D03*
X180600000Y-117199500D03*
X183075000Y-119200000D03*
X178075000Y-116300000D03*
X177350000Y-121375000D03*
X182525000Y-109800000D03*
X177375000Y-111475000D03*
%TO.N,EN*%
X186475000Y-99450000D03*
X215257393Y-129468009D03*
X210725000Y-150050000D03*
X212625000Y-125275000D03*
%TO.N,DC*%
X210550000Y-102125000D03*
X213675000Y-98150000D03*
%TO.N,RESET*%
X206400000Y-108575000D03*
%TO.N,DIN*%
X178675000Y-117475000D03*
X188375000Y-115625000D03*
%TO.N,BOOT*%
X214625000Y-125300000D03*
X211875000Y-104575000D03*
%TO.N,RX0*%
X211325000Y-93150000D03*
X202100000Y-121250000D03*
%TO.N,TX0*%
X212800000Y-91850000D03*
X203300000Y-121225000D03*
%TO.N,LRCLK*%
X182965595Y-118173461D03*
X186750000Y-117899500D03*
%TO.N,BCLK*%
X182999951Y-117174549D03*
X187575000Y-116825000D03*
%TD*%
D20*
%TO.N,LRCLK*%
X186385896Y-118263604D02*
X186750000Y-117899500D01*
X182965595Y-118173461D02*
X183055738Y-118263604D01*
X183055738Y-118263604D02*
X186385896Y-118263604D01*
%TO.N,BCLK*%
X187225000Y-117175000D02*
X187575000Y-116825000D01*
X183000402Y-117175000D02*
X187225000Y-117175000D01*
X182999951Y-117174549D02*
X183000402Y-117175000D01*
%TO.N,DIN*%
X179175000Y-116425000D02*
X178675000Y-116925000D01*
X186850000Y-116425000D02*
X179175000Y-116425000D01*
X187650000Y-115625000D02*
X186850000Y-116425000D01*
X178675000Y-116925000D02*
X178675000Y-117475000D01*
X188375000Y-115625000D02*
X187650000Y-115625000D01*
%TO.N,EN*%
X193800000Y-113975305D02*
X205099695Y-125275000D01*
X193800000Y-112350000D02*
X193800000Y-113975305D01*
X184875000Y-103425000D02*
X193800000Y-112350000D01*
X205099695Y-125275000D02*
X212625000Y-125275000D01*
X184875000Y-101050000D02*
X184875000Y-103425000D01*
X186475000Y-99450000D02*
X184875000Y-101050000D01*
X215257393Y-129468009D02*
X215257393Y-145517607D01*
X215257393Y-145517607D02*
X210725000Y-150050000D01*
%TO.N,DC*%
X213675000Y-99000000D02*
X210550000Y-102125000D01*
X213675000Y-98150000D02*
X213675000Y-99000000D01*
%TO.N,RESET*%
X211150000Y-104274695D02*
X211574695Y-103850000D01*
X206875000Y-108575000D02*
X211150000Y-104300000D01*
X215650000Y-99800000D02*
X218925000Y-99800000D01*
X211574695Y-103850000D02*
X211600000Y-103850000D01*
X211150000Y-104300000D02*
X211150000Y-104274695D01*
X206400000Y-108575000D02*
X206875000Y-108575000D01*
X211600000Y-103850000D02*
X215650000Y-99800000D01*
%TO.N,BOOT*%
X214625000Y-107325000D02*
X211875000Y-104575000D01*
X214625000Y-125300000D02*
X214625000Y-107325000D01*
%TO.N,RX0*%
X214550000Y-96375000D02*
X211325000Y-93150000D01*
X214550000Y-99563604D02*
X214550000Y-96375000D01*
X205913299Y-107400000D02*
X206713604Y-107400000D01*
X206713604Y-107400000D02*
X214550000Y-99563604D01*
X202100000Y-121250000D02*
X202100000Y-111213299D01*
X202100000Y-111213299D02*
X205913299Y-107400000D01*
%TO.N,TX0*%
X206900000Y-107850000D02*
X215025000Y-99725000D01*
X215025000Y-94075000D02*
X212800000Y-91850000D01*
X215025000Y-99725000D02*
X215025000Y-94075000D01*
X203300000Y-110649695D02*
X206099695Y-107850000D01*
X203300000Y-121225000D02*
X203300000Y-110649695D01*
X206099695Y-107850000D02*
X206900000Y-107850000D01*
%TD*%
%TA.AperFunction,Conductor*%
%TO.N,GND*%
G36*
X163533614Y-82036788D02*
G01*
X163533610Y-82036788D01*
X216112906Y-75641201D01*
X163533614Y-82036788D01*
G37*
%TD.AperFunction*%
%TD*%
%TA.AperFunction,Conductor*%
%TO.N,GND*%
G36*
X189743039Y-86420185D02*
G01*
X189788794Y-86472989D01*
X189793188Y-86493188D01*
X189800000Y-86500000D01*
X207800000Y-86500000D01*
X207810184Y-86489815D01*
X207819685Y-86457461D01*
X207872489Y-86411706D01*
X207924000Y-86400500D01*
X221575500Y-86400500D01*
X221642539Y-86420185D01*
X221688294Y-86472989D01*
X221699500Y-86524500D01*
X221699500Y-158925500D01*
X221679815Y-158992539D01*
X221627011Y-159038294D01*
X221575500Y-159049500D01*
X205272683Y-159049500D01*
X205205644Y-159029815D01*
X205159889Y-158977011D01*
X205149945Y-158907853D01*
X205178970Y-158844297D01*
X205221172Y-158812705D01*
X205392507Y-158734459D01*
X205563619Y-158612610D01*
X205563625Y-158612604D01*
X205708592Y-158460567D01*
X205822166Y-158283842D01*
X205900244Y-158088814D01*
X205940000Y-157882537D01*
X205940000Y-157502500D01*
X205140000Y-157502500D01*
X205140000Y-157002500D01*
X205940000Y-157002500D01*
X205940000Y-156675101D01*
X205925034Y-156518377D01*
X205925033Y-156518373D01*
X205865850Y-156316813D01*
X205769586Y-156130085D01*
X205639731Y-155964962D01*
X205639728Y-155964959D01*
X205480969Y-155827394D01*
X205480958Y-155827385D01*
X205299039Y-155722355D01*
X205299032Y-155722352D01*
X205100516Y-155653644D01*
X205090000Y-155652132D01*
X205090000Y-156561389D01*
X205065543Y-156521890D01*
X204976038Y-156454299D01*
X204868160Y-156423605D01*
X204756479Y-156433954D01*
X204656078Y-156483948D01*
X204590000Y-156556430D01*
X204590000Y-155656240D01*
X204589999Y-155656240D01*
X204478594Y-155683268D01*
X204478582Y-155683272D01*
X204287497Y-155770537D01*
X204287496Y-155770538D01*
X204116380Y-155892389D01*
X204116373Y-155892395D01*
X204044244Y-155968043D01*
X203983735Y-156002978D01*
X203913944Y-155999653D01*
X203857030Y-155959124D01*
X203831062Y-155894259D01*
X203830501Y-155882473D01*
X203830501Y-154658266D01*
X203832085Y-154638509D01*
X203837448Y-154605294D01*
X203849899Y-154567759D01*
X203860786Y-154546871D01*
X203884430Y-154515163D01*
X203901338Y-154498771D01*
X203933758Y-154476126D01*
X203964292Y-154461395D01*
X203982918Y-154454197D01*
X204035433Y-154438629D01*
X204035554Y-154438574D01*
X204035561Y-154438573D01*
X204146893Y-154370466D01*
X204237045Y-154276093D01*
X204256084Y-154241510D01*
X204305658Y-154192279D01*
X204373981Y-154177662D01*
X204405266Y-154184135D01*
X204599487Y-154251356D01*
X204610000Y-154252867D01*
X204610000Y-153343610D01*
X204634457Y-153383110D01*
X204723962Y-153450701D01*
X204831840Y-153481395D01*
X204943521Y-153471046D01*
X205043922Y-153421052D01*
X205110000Y-153348569D01*
X205110000Y-154248757D01*
X205221409Y-154221729D01*
X205412507Y-154134459D01*
X205583619Y-154012610D01*
X205583625Y-154012604D01*
X205728592Y-153860567D01*
X205842166Y-153683842D01*
X205920244Y-153488814D01*
X205960000Y-153282537D01*
X205960000Y-152902500D01*
X205160000Y-152902500D01*
X205160000Y-152402500D01*
X205960000Y-152402500D01*
X205960000Y-152075101D01*
X205945034Y-151918377D01*
X205945033Y-151918373D01*
X205885850Y-151716813D01*
X205789586Y-151530085D01*
X205659731Y-151364962D01*
X205659728Y-151364959D01*
X205500969Y-151227394D01*
X205500958Y-151227385D01*
X205319039Y-151122355D01*
X205319032Y-151122352D01*
X205120516Y-151053644D01*
X205110000Y-151052132D01*
X205110000Y-151961389D01*
X205085543Y-151921890D01*
X204996038Y-151854299D01*
X204888160Y-151823605D01*
X204776479Y-151833954D01*
X204676078Y-151883948D01*
X204610000Y-151956430D01*
X204610000Y-151056240D01*
X204609999Y-151056240D01*
X204498594Y-151083268D01*
X204498582Y-151083272D01*
X204307497Y-151170537D01*
X204307496Y-151170538D01*
X204136380Y-151292389D01*
X204136374Y-151292395D01*
X203991407Y-151444432D01*
X203877833Y-151621157D01*
X203799755Y-151816185D01*
X203760000Y-152022462D01*
X203760000Y-152206684D01*
X203740315Y-152273723D01*
X203687511Y-152319478D01*
X203618353Y-152329422D01*
X203554797Y-152300397D01*
X203537625Y-152282171D01*
X203479701Y-152206684D01*
X203445451Y-152162049D01*
X203325233Y-152069802D01*
X203325229Y-152069800D01*
X203261801Y-152043527D01*
X203185236Y-152011813D01*
X203171171Y-152009961D01*
X203072727Y-151997000D01*
X203072720Y-151997000D01*
X202997280Y-151997000D01*
X202997272Y-151997000D01*
X202884764Y-152011813D01*
X202884763Y-152011813D01*
X202744770Y-152069800D01*
X202744767Y-152069801D01*
X202744767Y-152069802D01*
X202705806Y-152099698D01*
X202624549Y-152162049D01*
X202532300Y-152282270D01*
X202474313Y-152422263D01*
X202474313Y-152422264D01*
X202454158Y-152575352D01*
X202425891Y-152639248D01*
X202367567Y-152677719D01*
X202297702Y-152678550D01*
X202269219Y-152666553D01*
X202173189Y-152611110D01*
X202173186Y-152611109D01*
X202045892Y-152577001D01*
X201914108Y-152577001D01*
X201786814Y-152611109D01*
X201739071Y-152638674D01*
X201690784Y-152666553D01*
X201672684Y-152677003D01*
X201579502Y-152770183D01*
X201551978Y-152817855D01*
X201539577Y-152835564D01*
X201516073Y-152863572D01*
X201483082Y-152891252D01*
X201460952Y-152904027D01*
X201420484Y-152918753D01*
X201384381Y-152925117D01*
X201362855Y-152927000D01*
X197197062Y-152927000D01*
X197175541Y-152925118D01*
X197139514Y-152918768D01*
X197099046Y-152904043D01*
X197076910Y-152891265D01*
X197043917Y-152863584D01*
X197039546Y-152858376D01*
X197020466Y-152835639D01*
X197008066Y-152817931D01*
X196997935Y-152800385D01*
X196979111Y-152765212D01*
X196977125Y-152764515D01*
X196961824Y-152751512D01*
X196887317Y-152677003D01*
X196869217Y-152666553D01*
X196820930Y-152638674D01*
X196773187Y-152611109D01*
X196657573Y-152580131D01*
X196645892Y-152577001D01*
X196514108Y-152577001D01*
X196386815Y-152611109D01*
X196386814Y-152611109D01*
X196300073Y-152661189D01*
X196232173Y-152677661D01*
X196166146Y-152654808D01*
X196122956Y-152599886D01*
X196115135Y-152569986D01*
X196095687Y-152422265D01*
X196095687Y-152422264D01*
X196037698Y-152282267D01*
X195945451Y-152162049D01*
X195825233Y-152069802D01*
X195825229Y-152069800D01*
X195761801Y-152043527D01*
X195685236Y-152011813D01*
X195671171Y-152009961D01*
X195572727Y-151997000D01*
X195572720Y-151997000D01*
X195497280Y-151997000D01*
X195497272Y-151997000D01*
X195384764Y-152011813D01*
X195384763Y-152011813D01*
X195244770Y-152069800D01*
X195244767Y-152069801D01*
X195244767Y-152069802D01*
X195124549Y-152162049D01*
X195124548Y-152162050D01*
X195124547Y-152162051D01*
X195032375Y-152282171D01*
X194975947Y-152323373D01*
X194906201Y-152327528D01*
X194845281Y-152293315D01*
X194812529Y-152231598D01*
X194810000Y-152206684D01*
X194810000Y-152075101D01*
X194795034Y-151918377D01*
X194795033Y-151918373D01*
X194735850Y-151716813D01*
X194639586Y-151530085D01*
X194509731Y-151364962D01*
X194509728Y-151364959D01*
X194350969Y-151227394D01*
X194350958Y-151227385D01*
X194169039Y-151122355D01*
X194169032Y-151122352D01*
X193970516Y-151053644D01*
X193960000Y-151052132D01*
X193960000Y-151961389D01*
X193935543Y-151921890D01*
X193846038Y-151854299D01*
X193738160Y-151823605D01*
X193626479Y-151833954D01*
X193526078Y-151883948D01*
X193460000Y-151956430D01*
X193460000Y-151056240D01*
X193459999Y-151056240D01*
X193348594Y-151083268D01*
X193348582Y-151083272D01*
X193157497Y-151170537D01*
X193157496Y-151170538D01*
X192986380Y-151292389D01*
X192986374Y-151292395D01*
X192841407Y-151444432D01*
X192727833Y-151621157D01*
X192649755Y-151816185D01*
X192610000Y-152022462D01*
X192610000Y-152402500D01*
X193410000Y-152402500D01*
X193410000Y-152902500D01*
X192610000Y-152902500D01*
X192610000Y-153229898D01*
X192624965Y-153386622D01*
X192624966Y-153386626D01*
X192684149Y-153588186D01*
X192780413Y-153774914D01*
X192910268Y-153940037D01*
X192910271Y-153940040D01*
X193069030Y-154077605D01*
X193069041Y-154077614D01*
X193250960Y-154182644D01*
X193250967Y-154182647D01*
X193449487Y-154251356D01*
X193460000Y-154252867D01*
X193460000Y-153343610D01*
X193484457Y-153383110D01*
X193573962Y-153450701D01*
X193681840Y-153481395D01*
X193793521Y-153471046D01*
X193893922Y-153421052D01*
X193960000Y-153348569D01*
X193960000Y-154248757D01*
X194071412Y-154221729D01*
X194143849Y-154188648D01*
X194213007Y-154178704D01*
X194276563Y-154207729D01*
X194303986Y-154241636D01*
X194322956Y-154276091D01*
X194322957Y-154276093D01*
X194413109Y-154370465D01*
X194524441Y-154438571D01*
X194577100Y-154454197D01*
X194577376Y-154454279D01*
X194596022Y-154461493D01*
X194626253Y-154476094D01*
X194658659Y-154498747D01*
X194675570Y-154515151D01*
X194699202Y-154546861D01*
X194710087Y-154567753D01*
X194722533Y-154605287D01*
X194727916Y-154638634D01*
X194729501Y-154658395D01*
X194729501Y-155911580D01*
X194709816Y-155978619D01*
X194657012Y-156024374D01*
X194587854Y-156034318D01*
X194524298Y-156005293D01*
X194508031Y-155988233D01*
X194489727Y-155964958D01*
X194330969Y-155827394D01*
X194330958Y-155827385D01*
X194149039Y-155722355D01*
X194149032Y-155722352D01*
X193950516Y-155653644D01*
X193940000Y-155652132D01*
X193940000Y-156561389D01*
X193915543Y-156521890D01*
X193826038Y-156454299D01*
X193718160Y-156423605D01*
X193606479Y-156433954D01*
X193506078Y-156483948D01*
X193440000Y-156556430D01*
X193440000Y-155656240D01*
X193439999Y-155656240D01*
X193328594Y-155683268D01*
X193328582Y-155683272D01*
X193137497Y-155770537D01*
X193137496Y-155770538D01*
X192966380Y-155892389D01*
X192966374Y-155892395D01*
X192821407Y-156044432D01*
X192707833Y-156221157D01*
X192629755Y-156416185D01*
X192590000Y-156622462D01*
X192590000Y-157002500D01*
X193390000Y-157002500D01*
X193390000Y-157502500D01*
X192590000Y-157502500D01*
X192590000Y-157829898D01*
X192604965Y-157986622D01*
X192604966Y-157986626D01*
X192664149Y-158188186D01*
X192760413Y-158374914D01*
X192890268Y-158540037D01*
X192890271Y-158540040D01*
X193049030Y-158677605D01*
X193049041Y-158677614D01*
X193230960Y-158782644D01*
X193230967Y-158782647D01*
X193305142Y-158808320D01*
X193362056Y-158848848D01*
X193388024Y-158913713D01*
X193374801Y-158982320D01*
X193326585Y-159032887D01*
X193264585Y-159049500D01*
X176874500Y-159049500D01*
X176807461Y-159029815D01*
X176761706Y-158977011D01*
X176750500Y-158925500D01*
X176750500Y-154850004D01*
X180869953Y-154850004D01*
X180890113Y-155119026D01*
X180890113Y-155119028D01*
X180950142Y-155382033D01*
X180950148Y-155382052D01*
X181048709Y-155633181D01*
X181048708Y-155633181D01*
X181183602Y-155866822D01*
X181237294Y-155934151D01*
X181237295Y-155934151D01*
X181958338Y-155213108D01*
X182045577Y-155351948D01*
X182173052Y-155479423D01*
X182311890Y-155566661D01*
X181589848Y-156288702D01*
X181772483Y-156413220D01*
X181772485Y-156413221D01*
X182015539Y-156530269D01*
X182015537Y-156530269D01*
X182273337Y-156609790D01*
X182273343Y-156609792D01*
X182540101Y-156649999D01*
X182540110Y-156650000D01*
X182809890Y-156650000D01*
X182809898Y-156649999D01*
X183076656Y-156609792D01*
X183076662Y-156609790D01*
X183334461Y-156530269D01*
X183577521Y-156413218D01*
X183760150Y-156288702D01*
X183038108Y-155566661D01*
X183176948Y-155479423D01*
X183304423Y-155351948D01*
X183391661Y-155213108D01*
X184112703Y-155934151D01*
X184112704Y-155934150D01*
X184166393Y-155866828D01*
X184166400Y-155866817D01*
X184301290Y-155633181D01*
X184399851Y-155382052D01*
X184399857Y-155382033D01*
X184459886Y-155119028D01*
X184459886Y-155119026D01*
X184480047Y-154850004D01*
X184480047Y-154849995D01*
X184459886Y-154580973D01*
X184459886Y-154580971D01*
X184399857Y-154317966D01*
X184399851Y-154317947D01*
X184301290Y-154066818D01*
X184301291Y-154066818D01*
X184166397Y-153833177D01*
X184112704Y-153765847D01*
X183391660Y-154486890D01*
X183304423Y-154348052D01*
X183176948Y-154220577D01*
X183038108Y-154133338D01*
X183760150Y-153411296D01*
X183577517Y-153286779D01*
X183577516Y-153286778D01*
X183334460Y-153169730D01*
X183334462Y-153169730D01*
X183076662Y-153090209D01*
X183076656Y-153090207D01*
X182809898Y-153050000D01*
X182540101Y-153050000D01*
X182273343Y-153090207D01*
X182273337Y-153090209D01*
X182015538Y-153169730D01*
X181772485Y-153286778D01*
X181772476Y-153286783D01*
X181589848Y-153411296D01*
X182311891Y-154133338D01*
X182173052Y-154220577D01*
X182045577Y-154348052D01*
X181958338Y-154486891D01*
X181237295Y-153765848D01*
X181183600Y-153833180D01*
X181048709Y-154066818D01*
X180950148Y-154317947D01*
X180950142Y-154317966D01*
X180890113Y-154580971D01*
X180890113Y-154580973D01*
X180869953Y-154849995D01*
X180869953Y-154850004D01*
X176750500Y-154850004D01*
X176750500Y-151850004D01*
X185569451Y-151850004D01*
X185589616Y-152119101D01*
X185649664Y-152382188D01*
X185649666Y-152382195D01*
X185739509Y-152611110D01*
X185748257Y-152633398D01*
X185883185Y-152867102D01*
X185939976Y-152938315D01*
X186051442Y-153078089D01*
X186219023Y-153233580D01*
X186249259Y-153261635D01*
X186472226Y-153413651D01*
X186715359Y-153530738D01*
X186973228Y-153610280D01*
X186973229Y-153610280D01*
X186973232Y-153610281D01*
X187240063Y-153650499D01*
X187240068Y-153650499D01*
X187240071Y-153650500D01*
X187240072Y-153650500D01*
X187509928Y-153650500D01*
X187509929Y-153650500D01*
X187509936Y-153650499D01*
X187776767Y-153610281D01*
X187776768Y-153610280D01*
X187776772Y-153610280D01*
X188034641Y-153530738D01*
X188262423Y-153421044D01*
X188277767Y-153413655D01*
X188277767Y-153413654D01*
X188277775Y-153413651D01*
X188500741Y-153261635D01*
X188654259Y-153119190D01*
X188698557Y-153078089D01*
X188698557Y-153078087D01*
X188698561Y-153078085D01*
X188866815Y-152867102D01*
X189001743Y-152633398D01*
X189100334Y-152382195D01*
X189160383Y-152119103D01*
X189180549Y-151850000D01*
X189160383Y-151580897D01*
X189100334Y-151317805D01*
X189001743Y-151066602D01*
X188866815Y-150832898D01*
X188698561Y-150621915D01*
X188698560Y-150621914D01*
X188698557Y-150621910D01*
X188500741Y-150438365D01*
X188471277Y-150418277D01*
X188277775Y-150286349D01*
X188277769Y-150286346D01*
X188277768Y-150286345D01*
X188277767Y-150286344D01*
X188034643Y-150169263D01*
X188034645Y-150169263D01*
X187776773Y-150089720D01*
X187776767Y-150089718D01*
X187513253Y-150050000D01*
X209819540Y-150050000D01*
X209839326Y-150238256D01*
X209839327Y-150238259D01*
X209897818Y-150418277D01*
X209897821Y-150418284D01*
X209992467Y-150582216D01*
X210119129Y-150722888D01*
X210272265Y-150834148D01*
X210272270Y-150834151D01*
X210445192Y-150911142D01*
X210445197Y-150911144D01*
X210630354Y-150950500D01*
X210630355Y-150950500D01*
X210819644Y-150950500D01*
X210819646Y-150950500D01*
X211004803Y-150911144D01*
X211177730Y-150834151D01*
X211330871Y-150722888D01*
X211457533Y-150582216D01*
X211552179Y-150418284D01*
X211610674Y-150238256D01*
X211628321Y-150070345D01*
X211654905Y-150005732D01*
X211663952Y-149995636D01*
X215641179Y-146018409D01*
X215653441Y-146008587D01*
X215653258Y-146008366D01*
X215659260Y-146003399D01*
X215659270Y-146003393D01*
X215706634Y-145952955D01*
X215727513Y-145932077D01*
X215731766Y-145926593D01*
X215735543Y-145922170D01*
X215767455Y-145888189D01*
X215777107Y-145870630D01*
X215787782Y-145854379D01*
X215800067Y-145838543D01*
X215818579Y-145795759D01*
X215821135Y-145790542D01*
X215843590Y-145749699D01*
X215848573Y-145730287D01*
X215854870Y-145711898D01*
X215862831Y-145693502D01*
X215870122Y-145647460D01*
X215871301Y-145641769D01*
X215882893Y-145596626D01*
X215882893Y-145576590D01*
X215884420Y-145557189D01*
X215887553Y-145537411D01*
X215883168Y-145491022D01*
X215882893Y-145485184D01*
X215882893Y-130166696D01*
X215902578Y-130099657D01*
X215914743Y-130083724D01*
X215933284Y-130063131D01*
X215989926Y-130000225D01*
X216084572Y-129836293D01*
X216143067Y-129656265D01*
X216162853Y-129468009D01*
X216143067Y-129279753D01*
X216084572Y-129099725D01*
X215989926Y-128935793D01*
X215863264Y-128795121D01*
X215863263Y-128795120D01*
X215710127Y-128683860D01*
X215710122Y-128683857D01*
X215537200Y-128606866D01*
X215537195Y-128606864D01*
X215391394Y-128575874D01*
X215352039Y-128567509D01*
X215162747Y-128567509D01*
X215130290Y-128574407D01*
X214977590Y-128606864D01*
X214977585Y-128606866D01*
X214804663Y-128683857D01*
X214804658Y-128683860D01*
X214651522Y-128795120D01*
X214524859Y-128935794D01*
X214430214Y-129099724D01*
X214430211Y-129099731D01*
X214371720Y-129279749D01*
X214371719Y-129279753D01*
X214351933Y-129468009D01*
X214371719Y-129656265D01*
X214371720Y-129656268D01*
X214430211Y-129836286D01*
X214430214Y-129836293D01*
X214524860Y-130000225D01*
X214568165Y-130048319D01*
X214600043Y-130083724D01*
X214630273Y-130146715D01*
X214631893Y-130166696D01*
X214631893Y-145207154D01*
X214612208Y-145274193D01*
X214595574Y-145294835D01*
X210777228Y-149113181D01*
X210715905Y-149146666D01*
X210689547Y-149149500D01*
X210630354Y-149149500D01*
X210597897Y-149156398D01*
X210445197Y-149188855D01*
X210445192Y-149188857D01*
X210272270Y-149265848D01*
X210272265Y-149265851D01*
X210119129Y-149377111D01*
X209992466Y-149517785D01*
X209897821Y-149681715D01*
X209897818Y-149681722D01*
X209839327Y-149861740D01*
X209839326Y-149861744D01*
X209819540Y-150050000D01*
X187513253Y-150050000D01*
X187509936Y-150049500D01*
X187509929Y-150049500D01*
X187240071Y-150049500D01*
X187240063Y-150049500D01*
X186973232Y-150089718D01*
X186973226Y-150089720D01*
X186715358Y-150169262D01*
X186472230Y-150286346D01*
X186249258Y-150438365D01*
X186051442Y-150621910D01*
X185883185Y-150832898D01*
X185748258Y-151066599D01*
X185748256Y-151066603D01*
X185649666Y-151317804D01*
X185649664Y-151317811D01*
X185589616Y-151580898D01*
X185569451Y-151849995D01*
X185569451Y-151850004D01*
X176750500Y-151850004D01*
X176750500Y-150197870D01*
X180874500Y-150197870D01*
X180874501Y-150197876D01*
X180880908Y-150257483D01*
X180931202Y-150392328D01*
X180931206Y-150392335D01*
X181017452Y-150507544D01*
X181017455Y-150507547D01*
X181132664Y-150593793D01*
X181132671Y-150593797D01*
X181267517Y-150644091D01*
X181267516Y-150644091D01*
X181274444Y-150644835D01*
X181327127Y-150650500D01*
X184022872Y-150650499D01*
X184082483Y-150644091D01*
X184217331Y-150593796D01*
X184332546Y-150507546D01*
X184418796Y-150392331D01*
X184469091Y-150257483D01*
X184475500Y-150197873D01*
X184475499Y-147502128D01*
X184469091Y-147442517D01*
X184418796Y-147307669D01*
X184418795Y-147307668D01*
X184418793Y-147307664D01*
X184332547Y-147192455D01*
X184332544Y-147192452D01*
X184217335Y-147106206D01*
X184217328Y-147106202D01*
X184082482Y-147055908D01*
X184082483Y-147055908D01*
X184022883Y-147049501D01*
X184022881Y-147049500D01*
X184022873Y-147049500D01*
X184022864Y-147049500D01*
X181327129Y-147049500D01*
X181327123Y-147049501D01*
X181267516Y-147055908D01*
X181132671Y-147106202D01*
X181132664Y-147106206D01*
X181017455Y-147192452D01*
X181017452Y-147192455D01*
X180931206Y-147307664D01*
X180931202Y-147307671D01*
X180880908Y-147442517D01*
X180874501Y-147502116D01*
X180874501Y-147502123D01*
X180874500Y-147502135D01*
X180874500Y-150197870D01*
X176750500Y-150197870D01*
X176750500Y-143946687D01*
X177837500Y-143946687D01*
X177852974Y-144108741D01*
X177852977Y-144108758D01*
X177914176Y-144317185D01*
X178013723Y-144510280D01*
X178148005Y-144681032D01*
X178148009Y-144681035D01*
X178312186Y-144823297D01*
X178500312Y-144931911D01*
X178705603Y-145002963D01*
X178725000Y-145005751D01*
X178725000Y-144121683D01*
X178753819Y-144139209D01*
X178899404Y-144180000D01*
X179012622Y-144180000D01*
X179124783Y-144164584D01*
X179225000Y-144121053D01*
X179225000Y-145002343D01*
X179348729Y-144972328D01*
X179546337Y-144882085D01*
X179546338Y-144882084D01*
X179723287Y-144756078D01*
X179723290Y-144756075D01*
X179737183Y-144741505D01*
X179797692Y-144706569D01*
X179867482Y-144709892D01*
X179910466Y-144735436D01*
X179986262Y-144804533D01*
X179986265Y-144804535D01*
X180165573Y-144915558D01*
X180165574Y-144915558D01*
X180165577Y-144915560D01*
X180362237Y-144991746D01*
X180569549Y-145030500D01*
X180569551Y-145030500D01*
X180780449Y-145030500D01*
X180780451Y-145030500D01*
X180987763Y-144991746D01*
X181184423Y-144915560D01*
X181363736Y-144804534D01*
X181441542Y-144733604D01*
X181504343Y-144702988D01*
X181573730Y-144711185D01*
X181606281Y-144731529D01*
X181712186Y-144823297D01*
X181900312Y-144931911D01*
X182105603Y-145002963D01*
X182125000Y-145005751D01*
X182125000Y-144121683D01*
X182153819Y-144139209D01*
X182299404Y-144180000D01*
X182412622Y-144180000D01*
X182524783Y-144164584D01*
X182625000Y-144121053D01*
X182625000Y-145002343D01*
X182748729Y-144972328D01*
X182946337Y-144882085D01*
X182946338Y-144882084D01*
X183123287Y-144756078D01*
X183123290Y-144756075D01*
X183137183Y-144741505D01*
X183197692Y-144706569D01*
X183267482Y-144709892D01*
X183310466Y-144735436D01*
X183386262Y-144804533D01*
X183386265Y-144804535D01*
X183565573Y-144915558D01*
X183565574Y-144915558D01*
X183565577Y-144915560D01*
X183762237Y-144991746D01*
X183969549Y-145030500D01*
X183969551Y-145030500D01*
X184180449Y-145030500D01*
X184180451Y-145030500D01*
X184387763Y-144991746D01*
X184584423Y-144915560D01*
X184640026Y-144881131D01*
X184707385Y-144862575D01*
X184774085Y-144883382D01*
X184779616Y-144887292D01*
X184779952Y-144887543D01*
X184779954Y-144887546D01*
X184893208Y-144972328D01*
X184895168Y-144973795D01*
X184895171Y-144973797D01*
X185030017Y-145024091D01*
X185030016Y-145024091D01*
X185036944Y-145024835D01*
X185089627Y-145030500D01*
X186460372Y-145030499D01*
X186519983Y-145024091D01*
X186654831Y-144973796D01*
X186770046Y-144887546D01*
X186856296Y-144772331D01*
X186906591Y-144637483D01*
X186913000Y-144577873D01*
X186912999Y-142682128D01*
X186906591Y-142622517D01*
X186879101Y-142548813D01*
X186856297Y-142487671D01*
X186856293Y-142487664D01*
X186770047Y-142372455D01*
X186770044Y-142372452D01*
X186654835Y-142286206D01*
X186654828Y-142286202D01*
X186519982Y-142235908D01*
X186519983Y-142235908D01*
X186460383Y-142229501D01*
X186460381Y-142229500D01*
X186460373Y-142229500D01*
X186460364Y-142229500D01*
X185089629Y-142229500D01*
X185089623Y-142229501D01*
X185030016Y-142235908D01*
X184895171Y-142286202D01*
X184895169Y-142286203D01*
X184779615Y-142372708D01*
X184714151Y-142397125D01*
X184645878Y-142382274D01*
X184640027Y-142378868D01*
X184584428Y-142344443D01*
X184584425Y-142344441D01*
X184584423Y-142344440D01*
X184584422Y-142344439D01*
X184584421Y-142344439D01*
X184437887Y-142287672D01*
X184387763Y-142268254D01*
X184180451Y-142229500D01*
X183969549Y-142229500D01*
X183762237Y-142268254D01*
X183762234Y-142268254D01*
X183762234Y-142268255D01*
X183565579Y-142344439D01*
X183565573Y-142344441D01*
X183386265Y-142455464D01*
X183386263Y-142455466D01*
X183308459Y-142526394D01*
X183245655Y-142557011D01*
X183176268Y-142548813D01*
X183143718Y-142528470D01*
X183037813Y-142436702D01*
X182849689Y-142328089D01*
X182644397Y-142257036D01*
X182625000Y-142254247D01*
X182625000Y-143138316D01*
X182596181Y-143120791D01*
X182450596Y-143080000D01*
X182337378Y-143080000D01*
X182225217Y-143095416D01*
X182125000Y-143138946D01*
X182125000Y-142257655D01*
X182001269Y-142287672D01*
X181803662Y-142377914D01*
X181803661Y-142377915D01*
X181626709Y-142503923D01*
X181612813Y-142518498D01*
X181552304Y-142553432D01*
X181482513Y-142550107D01*
X181439533Y-142524564D01*
X181363736Y-142455466D01*
X181363734Y-142455464D01*
X181184426Y-142344441D01*
X181184420Y-142344439D01*
X180987763Y-142268254D01*
X180780451Y-142229500D01*
X180569549Y-142229500D01*
X180362237Y-142268254D01*
X180362234Y-142268254D01*
X180362234Y-142268255D01*
X180165579Y-142344439D01*
X180165573Y-142344441D01*
X179986265Y-142455464D01*
X179986263Y-142455466D01*
X179908459Y-142526394D01*
X179845655Y-142557011D01*
X179776268Y-142548813D01*
X179743718Y-142528470D01*
X179637813Y-142436702D01*
X179449689Y-142328089D01*
X179244397Y-142257036D01*
X179225000Y-142254247D01*
X179225000Y-143138316D01*
X179196181Y-143120791D01*
X179050596Y-143080000D01*
X178937378Y-143080000D01*
X178825217Y-143095416D01*
X178725000Y-143138946D01*
X178725000Y-142257655D01*
X178601269Y-142287672D01*
X178403662Y-142377914D01*
X178403661Y-142377915D01*
X178226708Y-142503924D01*
X178226706Y-142503926D01*
X178076796Y-142661147D01*
X177959353Y-142843891D01*
X177878611Y-143045573D01*
X177837500Y-143258881D01*
X177837500Y-143380000D01*
X178480148Y-143380000D01*
X178431441Y-143517047D01*
X178421123Y-143667886D01*
X178451884Y-143815915D01*
X178485090Y-143880000D01*
X177837500Y-143880000D01*
X177837500Y-143946687D01*
X176750500Y-143946687D01*
X176750500Y-117475000D01*
X177769540Y-117475000D01*
X177789326Y-117663256D01*
X177789327Y-117663259D01*
X177847818Y-117843277D01*
X177847821Y-117843284D01*
X177942467Y-118007216D01*
X178069129Y-118147888D01*
X178222265Y-118259148D01*
X178222270Y-118259151D01*
X178395192Y-118336142D01*
X178395197Y-118336144D01*
X178580354Y-118375500D01*
X178580355Y-118375500D01*
X178769644Y-118375500D01*
X178769646Y-118375500D01*
X178954803Y-118336144D01*
X179127730Y-118259151D01*
X179280871Y-118147888D01*
X179407533Y-118007216D01*
X179502179Y-117843284D01*
X179560674Y-117663256D01*
X179580460Y-117475000D01*
X179560674Y-117286744D01*
X179536654Y-117212818D01*
X179534659Y-117142977D01*
X179570739Y-117083144D01*
X179633440Y-117052316D01*
X179654585Y-117050500D01*
X181970491Y-117050500D01*
X182037530Y-117070185D01*
X182083285Y-117122989D01*
X182093111Y-117168159D01*
X182093812Y-117168086D01*
X182094481Y-117174456D01*
X182094491Y-117174500D01*
X182094491Y-117174546D01*
X182094491Y-117174549D01*
X182114277Y-117362805D01*
X182114278Y-117362808D01*
X182172769Y-117542826D01*
X182172772Y-117542833D01*
X182195530Y-117582250D01*
X182212003Y-117650150D01*
X182195531Y-117706249D01*
X182138415Y-117805177D01*
X182082317Y-117977830D01*
X182079921Y-117985205D01*
X182060135Y-118173461D01*
X182079921Y-118361717D01*
X182079922Y-118361720D01*
X182138413Y-118541738D01*
X182138416Y-118541745D01*
X182233062Y-118705677D01*
X182331800Y-118815336D01*
X182359724Y-118846349D01*
X182512860Y-118957609D01*
X182512865Y-118957612D01*
X182685787Y-119034603D01*
X182685792Y-119034605D01*
X182870949Y-119073961D01*
X182870950Y-119073961D01*
X183060239Y-119073961D01*
X183060241Y-119073961D01*
X183245398Y-119034605D01*
X183418325Y-118957612D01*
X183427265Y-118951116D01*
X183480024Y-118912786D01*
X183545830Y-118889306D01*
X183552909Y-118889104D01*
X186303153Y-118889104D01*
X186318773Y-118890828D01*
X186318800Y-118890543D01*
X186326556Y-118891275D01*
X186326563Y-118891277D01*
X186395710Y-118889104D01*
X186425246Y-118889104D01*
X186432124Y-118888234D01*
X186437937Y-118887776D01*
X186484523Y-118886313D01*
X186503765Y-118880721D01*
X186522808Y-118876778D01*
X186542688Y-118874268D01*
X186586018Y-118857111D01*
X186591542Y-118855221D01*
X186593499Y-118854652D01*
X186636286Y-118842222D01*
X186653525Y-118832026D01*
X186670992Y-118823468D01*
X186689628Y-118816090D01*
X186689633Y-118816085D01*
X186690999Y-118815336D01*
X186692514Y-118814947D01*
X186696884Y-118813217D01*
X186697102Y-118813769D01*
X186750734Y-118800000D01*
X186844644Y-118800000D01*
X186844646Y-118800000D01*
X187029803Y-118760644D01*
X187202730Y-118683651D01*
X187355871Y-118572388D01*
X187482533Y-118431716D01*
X187577179Y-118267784D01*
X187635674Y-118087756D01*
X187655460Y-117899500D01*
X187649552Y-117843284D01*
X187662120Y-117774561D01*
X187709851Y-117723537D01*
X187747083Y-117709040D01*
X187854803Y-117686144D01*
X187854807Y-117686142D01*
X187854808Y-117686142D01*
X187948895Y-117644251D01*
X188027730Y-117609151D01*
X188180871Y-117497888D01*
X188307533Y-117357216D01*
X188402179Y-117193284D01*
X188460674Y-117013256D01*
X188480460Y-116825000D01*
X188461103Y-116640831D01*
X188473672Y-116572105D01*
X188521404Y-116521081D01*
X188558644Y-116506583D01*
X188654803Y-116486144D01*
X188827730Y-116409151D01*
X188980871Y-116297888D01*
X189107533Y-116157216D01*
X189202179Y-115993284D01*
X189260674Y-115813256D01*
X189280460Y-115625000D01*
X189260674Y-115436744D01*
X189202179Y-115256716D01*
X189107533Y-115092784D01*
X188980871Y-114952112D01*
X188980870Y-114952111D01*
X188827734Y-114840851D01*
X188827729Y-114840848D01*
X188654807Y-114763857D01*
X188654802Y-114763855D01*
X188509001Y-114732865D01*
X188469646Y-114724500D01*
X188280354Y-114724500D01*
X188247897Y-114731398D01*
X188095197Y-114763855D01*
X188095192Y-114763857D01*
X187922270Y-114840848D01*
X187922265Y-114840851D01*
X187769130Y-114952110D01*
X187769123Y-114952117D01*
X187764358Y-114957409D01*
X187704870Y-114994054D01*
X187676109Y-114998371D01*
X187640186Y-114999500D01*
X187610649Y-114999500D01*
X187603766Y-115000369D01*
X187597949Y-115000826D01*
X187551373Y-115002290D01*
X187532129Y-115007881D01*
X187513079Y-115011825D01*
X187493211Y-115014334D01*
X187449884Y-115031488D01*
X187444358Y-115033379D01*
X187399614Y-115046379D01*
X187399610Y-115046381D01*
X187382366Y-115056579D01*
X187364905Y-115065133D01*
X187346274Y-115072510D01*
X187346262Y-115072517D01*
X187308570Y-115099902D01*
X187303687Y-115103109D01*
X187263580Y-115126829D01*
X187249414Y-115140995D01*
X187234624Y-115153627D01*
X187218414Y-115165404D01*
X187218411Y-115165407D01*
X187188710Y-115201309D01*
X187184777Y-115205631D01*
X186627228Y-115763181D01*
X186565905Y-115796666D01*
X186539547Y-115799500D01*
X179257743Y-115799500D01*
X179242122Y-115797775D01*
X179242096Y-115798061D01*
X179234334Y-115797327D01*
X179234333Y-115797327D01*
X179165186Y-115799500D01*
X179135649Y-115799500D01*
X179128766Y-115800369D01*
X179122949Y-115800826D01*
X179076373Y-115802290D01*
X179057129Y-115807881D01*
X179038079Y-115811825D01*
X179018211Y-115814334D01*
X178974884Y-115831488D01*
X178969358Y-115833379D01*
X178924614Y-115846379D01*
X178924610Y-115846381D01*
X178907366Y-115856579D01*
X178889905Y-115865133D01*
X178871274Y-115872510D01*
X178871262Y-115872517D01*
X178833570Y-115899902D01*
X178828687Y-115903109D01*
X178788580Y-115926829D01*
X178774414Y-115940995D01*
X178759624Y-115953627D01*
X178743414Y-115965404D01*
X178743411Y-115965407D01*
X178713710Y-116001309D01*
X178709777Y-116005631D01*
X178291211Y-116424197D01*
X178278948Y-116434022D01*
X178279131Y-116434244D01*
X178273121Y-116439215D01*
X178225772Y-116489636D01*
X178204889Y-116510519D01*
X178204877Y-116510532D01*
X178200621Y-116516017D01*
X178196837Y-116520447D01*
X178164937Y-116554418D01*
X178164936Y-116554420D01*
X178155284Y-116571976D01*
X178144610Y-116588226D01*
X178132329Y-116604061D01*
X178132324Y-116604068D01*
X178113815Y-116646838D01*
X178111245Y-116652084D01*
X178088803Y-116692906D01*
X178083822Y-116712307D01*
X178077521Y-116730710D01*
X178069562Y-116749102D01*
X178069561Y-116749105D01*
X178065211Y-116776568D01*
X178035279Y-116839702D01*
X178034889Y-116840137D01*
X177942468Y-116942782D01*
X177942464Y-116942787D01*
X177847821Y-117106715D01*
X177847818Y-117106722D01*
X177813346Y-117212818D01*
X177789326Y-117286744D01*
X177769540Y-117475000D01*
X176750500Y-117475000D01*
X176750500Y-107400000D01*
X178119341Y-107400000D01*
X178139936Y-107635403D01*
X178139938Y-107635413D01*
X178201094Y-107863655D01*
X178201096Y-107863659D01*
X178201097Y-107863663D01*
X178251031Y-107970746D01*
X178300964Y-108077828D01*
X178300965Y-108077830D01*
X178436505Y-108271402D01*
X178603597Y-108438494D01*
X178797169Y-108574034D01*
X178797171Y-108574035D01*
X179011337Y-108673903D01*
X179239592Y-108735063D01*
X179416034Y-108750500D01*
X179833966Y-108750500D01*
X180010408Y-108735063D01*
X180238663Y-108673903D01*
X180452829Y-108574035D01*
X180646401Y-108438495D01*
X180813495Y-108271401D01*
X180949035Y-108077830D01*
X181048903Y-107863663D01*
X181110063Y-107635408D01*
X181130659Y-107400000D01*
X181129967Y-107392096D01*
X181121910Y-107299999D01*
X181110063Y-107164592D01*
X181048903Y-106936337D01*
X180949035Y-106722171D01*
X180949034Y-106722169D01*
X180813494Y-106528597D01*
X180666295Y-106381398D01*
X180632810Y-106320075D01*
X180637794Y-106250383D01*
X180679666Y-106194450D01*
X180688880Y-106188178D01*
X180748223Y-106151575D01*
X180843656Y-106092712D01*
X180967712Y-105968656D01*
X181059814Y-105819334D01*
X181114999Y-105652797D01*
X181125500Y-105550009D01*
X181125499Y-104249992D01*
X181114999Y-104147203D01*
X181059814Y-103980666D01*
X180967712Y-103831344D01*
X180843656Y-103707288D01*
X180726223Y-103634855D01*
X180694336Y-103615187D01*
X180694331Y-103615185D01*
X180639449Y-103596999D01*
X180527797Y-103560001D01*
X180527795Y-103560000D01*
X180425010Y-103549500D01*
X178824998Y-103549500D01*
X178824981Y-103549501D01*
X178722203Y-103560000D01*
X178722200Y-103560001D01*
X178555668Y-103615185D01*
X178555663Y-103615187D01*
X178406342Y-103707289D01*
X178282289Y-103831342D01*
X178190187Y-103980663D01*
X178190186Y-103980666D01*
X178135001Y-104147203D01*
X178135001Y-104147204D01*
X178135000Y-104147204D01*
X178124500Y-104249983D01*
X178124500Y-105550001D01*
X178124501Y-105550018D01*
X178135000Y-105652796D01*
X178135001Y-105652799D01*
X178190185Y-105819331D01*
X178190187Y-105819336D01*
X178225069Y-105875888D01*
X178280122Y-105965145D01*
X178282289Y-105968657D01*
X178406344Y-106092712D01*
X178561120Y-106188178D01*
X178607845Y-106240126D01*
X178619068Y-106309088D01*
X178591224Y-106373171D01*
X178583706Y-106381398D01*
X178436501Y-106528603D01*
X178436501Y-106528604D01*
X178300967Y-106722165D01*
X178300965Y-106722169D01*
X178201098Y-106936335D01*
X178201094Y-106936344D01*
X178139938Y-107164586D01*
X178139936Y-107164596D01*
X178119341Y-107399999D01*
X178119341Y-107400000D01*
X176750500Y-107400000D01*
X176750500Y-101030195D01*
X184244840Y-101030195D01*
X184249225Y-101076583D01*
X184249500Y-101082421D01*
X184249500Y-103342255D01*
X184247775Y-103357872D01*
X184248061Y-103357899D01*
X184247326Y-103365665D01*
X184249500Y-103434814D01*
X184249500Y-103464343D01*
X184249501Y-103464360D01*
X184250368Y-103471231D01*
X184250826Y-103477050D01*
X184252290Y-103523624D01*
X184252291Y-103523627D01*
X184257880Y-103542867D01*
X184261824Y-103561911D01*
X184264336Y-103581791D01*
X184281490Y-103625119D01*
X184283382Y-103630647D01*
X184296381Y-103675388D01*
X184306580Y-103692634D01*
X184315138Y-103710103D01*
X184322514Y-103728732D01*
X184349898Y-103766423D01*
X184353106Y-103771307D01*
X184376827Y-103811416D01*
X184376833Y-103811424D01*
X184390990Y-103825580D01*
X184403628Y-103840376D01*
X184415405Y-103856586D01*
X184415406Y-103856587D01*
X184451309Y-103886288D01*
X184455620Y-103890210D01*
X188836805Y-108271395D01*
X193138181Y-112572771D01*
X193171666Y-112634094D01*
X193174500Y-112660452D01*
X193174500Y-113892560D01*
X193172775Y-113908177D01*
X193173061Y-113908204D01*
X193172326Y-113915970D01*
X193174500Y-113985119D01*
X193174500Y-114014648D01*
X193174501Y-114014665D01*
X193175368Y-114021536D01*
X193175826Y-114027355D01*
X193177290Y-114073929D01*
X193177291Y-114073932D01*
X193182880Y-114093172D01*
X193186824Y-114112216D01*
X193188082Y-114122169D01*
X193189336Y-114132096D01*
X193206490Y-114175424D01*
X193208382Y-114180952D01*
X193221381Y-114225693D01*
X193231580Y-114242939D01*
X193240138Y-114260408D01*
X193247514Y-114279037D01*
X193274898Y-114316728D01*
X193278106Y-114321612D01*
X193301827Y-114361721D01*
X193301833Y-114361729D01*
X193315990Y-114375885D01*
X193328628Y-114390681D01*
X193340405Y-114406891D01*
X193340406Y-114406892D01*
X193376309Y-114436593D01*
X193380620Y-114440515D01*
X201917681Y-122977577D01*
X204598892Y-125658788D01*
X204608717Y-125671051D01*
X204608938Y-125670869D01*
X204613909Y-125676878D01*
X204639912Y-125701295D01*
X204664330Y-125724226D01*
X204685224Y-125745120D01*
X204690706Y-125749373D01*
X204695138Y-125753157D01*
X204729113Y-125785062D01*
X204746671Y-125794714D01*
X204762928Y-125805393D01*
X204778759Y-125817673D01*
X204798432Y-125826186D01*
X204821528Y-125836182D01*
X204826772Y-125838750D01*
X204867603Y-125861197D01*
X204880218Y-125864435D01*
X204887000Y-125866177D01*
X204905414Y-125872481D01*
X204923799Y-125880438D01*
X204969852Y-125887732D01*
X204975521Y-125888906D01*
X205020676Y-125900500D01*
X205040711Y-125900500D01*
X205060108Y-125902026D01*
X205079891Y-125905160D01*
X205126279Y-125900775D01*
X205132117Y-125900500D01*
X211921252Y-125900500D01*
X211988291Y-125920185D01*
X212013400Y-125941526D01*
X212019126Y-125947885D01*
X212019130Y-125947889D01*
X212172265Y-126059148D01*
X212172270Y-126059151D01*
X212345192Y-126136142D01*
X212345197Y-126136144D01*
X212530354Y-126175500D01*
X212530355Y-126175500D01*
X212719644Y-126175500D01*
X212719646Y-126175500D01*
X212904803Y-126136144D01*
X213077730Y-126059151D01*
X213230871Y-125947888D01*
X213357533Y-125807216D01*
X213452179Y-125643284D01*
X213503007Y-125486849D01*
X213542444Y-125429176D01*
X213606803Y-125401977D01*
X213675649Y-125413891D01*
X213727125Y-125461135D01*
X213738869Y-125486851D01*
X213797818Y-125668277D01*
X213797821Y-125668284D01*
X213892467Y-125832216D01*
X213996616Y-125947885D01*
X214019129Y-125972888D01*
X214172265Y-126084148D01*
X214172270Y-126084151D01*
X214345192Y-126161142D01*
X214345197Y-126161144D01*
X214530354Y-126200500D01*
X214530355Y-126200500D01*
X214719644Y-126200500D01*
X214719646Y-126200500D01*
X214904803Y-126161144D01*
X215077730Y-126084151D01*
X215230871Y-125972888D01*
X215357533Y-125832216D01*
X215452179Y-125668284D01*
X215510674Y-125488256D01*
X215530460Y-125300000D01*
X215510674Y-125111744D01*
X215452179Y-124931716D01*
X215357533Y-124767784D01*
X215335023Y-124742784D01*
X215282350Y-124684284D01*
X215252120Y-124621292D01*
X215250500Y-124601312D01*
X215250500Y-107407737D01*
X215252224Y-107392123D01*
X215251938Y-107392096D01*
X215252672Y-107384333D01*
X215250500Y-107315203D01*
X215250500Y-107285651D01*
X215250500Y-107285650D01*
X215249629Y-107278759D01*
X215249172Y-107272945D01*
X215247709Y-107226373D01*
X215242121Y-107207139D01*
X215238174Y-107188081D01*
X215235664Y-107168208D01*
X215218507Y-107124875D01*
X215216614Y-107119346D01*
X215203618Y-107074614D01*
X215203617Y-107074610D01*
X215193420Y-107057368D01*
X215184863Y-107039902D01*
X215177486Y-107021268D01*
X215150083Y-106983550D01*
X215146900Y-106978705D01*
X215123170Y-106938579D01*
X215123165Y-106938573D01*
X215109005Y-106924413D01*
X215096370Y-106909620D01*
X215084593Y-106893412D01*
X215048693Y-106863713D01*
X215044381Y-106859790D01*
X212813960Y-104629369D01*
X212780475Y-104568046D01*
X212778323Y-104554668D01*
X212760674Y-104386744D01*
X212702179Y-104206716D01*
X212607533Y-104042784D01*
X212536678Y-103964092D01*
X212506449Y-103901102D01*
X212515074Y-103831767D01*
X212541145Y-103793443D01*
X215872772Y-100461819D01*
X215934095Y-100428334D01*
X215960453Y-100425500D01*
X217524773Y-100425500D01*
X217591812Y-100445185D01*
X217626348Y-100478377D01*
X217761505Y-100671402D01*
X217928597Y-100838494D01*
X218085595Y-100948425D01*
X218129220Y-101003002D01*
X218136414Y-101072500D01*
X218104891Y-101134855D01*
X218085595Y-101151575D01*
X217928597Y-101261505D01*
X217761506Y-101428597D01*
X217761501Y-101428604D01*
X217625967Y-101622165D01*
X217625965Y-101622169D01*
X217526098Y-101836335D01*
X217526094Y-101836344D01*
X217464938Y-102064586D01*
X217464936Y-102064596D01*
X217444341Y-102299999D01*
X217444341Y-102300000D01*
X217464936Y-102535403D01*
X217464938Y-102535413D01*
X217526094Y-102763655D01*
X217526096Y-102763659D01*
X217526097Y-102763663D01*
X217542057Y-102797888D01*
X217625964Y-102977828D01*
X217625965Y-102977830D01*
X217761505Y-103171402D01*
X217928597Y-103338494D01*
X218085595Y-103448425D01*
X218129220Y-103503002D01*
X218136414Y-103572500D01*
X218104891Y-103634855D01*
X218085595Y-103651575D01*
X217928597Y-103761505D01*
X217761506Y-103928597D01*
X217761501Y-103928604D01*
X217625967Y-104122165D01*
X217625965Y-104122169D01*
X217526098Y-104336335D01*
X217526094Y-104336344D01*
X217464938Y-104564586D01*
X217464936Y-104564596D01*
X217444341Y-104799999D01*
X217444341Y-104800000D01*
X217464936Y-105035403D01*
X217464938Y-105035413D01*
X217526094Y-105263655D01*
X217526096Y-105263659D01*
X217526097Y-105263663D01*
X217570623Y-105359148D01*
X217625964Y-105477828D01*
X217625965Y-105477830D01*
X217761505Y-105671402D01*
X217928597Y-105838494D01*
X218085595Y-105948425D01*
X218129220Y-106003002D01*
X218136414Y-106072500D01*
X218104891Y-106134855D01*
X218085595Y-106151575D01*
X217928597Y-106261505D01*
X217761506Y-106428597D01*
X217761501Y-106428604D01*
X217625967Y-106622165D01*
X217625965Y-106622169D01*
X217526098Y-106836335D01*
X217526094Y-106836344D01*
X217464938Y-107064586D01*
X217464936Y-107064596D01*
X217444341Y-107299999D01*
X217444341Y-107300000D01*
X217464936Y-107535403D01*
X217464938Y-107535413D01*
X217526094Y-107763655D01*
X217526096Y-107763659D01*
X217526097Y-107763663D01*
X217572724Y-107863655D01*
X217625964Y-107977828D01*
X217625965Y-107977830D01*
X217761505Y-108171402D01*
X217928597Y-108338494D01*
X218085595Y-108448425D01*
X218129220Y-108503002D01*
X218136414Y-108572500D01*
X218104891Y-108634855D01*
X218085595Y-108651575D01*
X217928597Y-108761505D01*
X217761506Y-108928597D01*
X217761501Y-108928604D01*
X217625967Y-109122165D01*
X217625965Y-109122169D01*
X217526098Y-109336335D01*
X217526094Y-109336344D01*
X217464938Y-109564586D01*
X217464936Y-109564596D01*
X217444341Y-109799999D01*
X217444341Y-109800000D01*
X217464936Y-110035403D01*
X217464938Y-110035413D01*
X217526094Y-110263655D01*
X217526096Y-110263659D01*
X217526097Y-110263663D01*
X217576031Y-110370746D01*
X217625964Y-110477828D01*
X217625965Y-110477830D01*
X217761505Y-110671402D01*
X217928597Y-110838494D01*
X218085595Y-110948425D01*
X218129220Y-111003002D01*
X218136414Y-111072500D01*
X218104891Y-111134855D01*
X218085595Y-111151575D01*
X217928597Y-111261505D01*
X217761506Y-111428597D01*
X217761501Y-111428604D01*
X217625967Y-111622165D01*
X217625965Y-111622169D01*
X217526098Y-111836335D01*
X217526094Y-111836344D01*
X217464938Y-112064586D01*
X217464936Y-112064596D01*
X217444341Y-112299999D01*
X217444341Y-112300000D01*
X217464936Y-112535403D01*
X217464938Y-112535413D01*
X217526094Y-112763655D01*
X217526096Y-112763659D01*
X217526097Y-112763663D01*
X217576031Y-112870746D01*
X217625964Y-112977828D01*
X217625965Y-112977830D01*
X217761505Y-113171402D01*
X217928597Y-113338494D01*
X218085595Y-113448425D01*
X218129220Y-113503002D01*
X218136414Y-113572500D01*
X218104891Y-113634855D01*
X218085595Y-113651575D01*
X217928597Y-113761505D01*
X217761506Y-113928597D01*
X217761501Y-113928604D01*
X217625967Y-114122165D01*
X217625965Y-114122169D01*
X217526098Y-114336335D01*
X217526094Y-114336344D01*
X217464938Y-114564586D01*
X217464936Y-114564596D01*
X217444341Y-114799999D01*
X217444341Y-114800000D01*
X217464936Y-115035403D01*
X217464938Y-115035413D01*
X217526094Y-115263655D01*
X217526096Y-115263659D01*
X217526097Y-115263663D01*
X217576031Y-115370746D01*
X217625964Y-115477828D01*
X217625965Y-115477830D01*
X217761505Y-115671402D01*
X217928597Y-115838494D01*
X218085595Y-115948425D01*
X218129220Y-116003002D01*
X218136414Y-116072500D01*
X218104891Y-116134855D01*
X218085595Y-116151575D01*
X217928597Y-116261505D01*
X217761506Y-116428597D01*
X217761501Y-116428604D01*
X217625967Y-116622165D01*
X217625965Y-116622169D01*
X217526098Y-116836335D01*
X217526094Y-116836344D01*
X217464938Y-117064586D01*
X217464936Y-117064596D01*
X217444341Y-117299999D01*
X217444341Y-117300000D01*
X217464936Y-117535403D01*
X217464938Y-117535413D01*
X217526094Y-117763655D01*
X217526096Y-117763659D01*
X217526097Y-117763663D01*
X217576031Y-117870746D01*
X217625964Y-117977828D01*
X217625965Y-117977830D01*
X217761505Y-118171402D01*
X217928597Y-118338494D01*
X218085595Y-118448425D01*
X218129220Y-118503002D01*
X218136414Y-118572500D01*
X218104891Y-118634855D01*
X218085595Y-118651575D01*
X217928597Y-118761505D01*
X217761506Y-118928597D01*
X217761501Y-118928604D01*
X217625967Y-119122165D01*
X217625965Y-119122169D01*
X217526098Y-119336335D01*
X217526094Y-119336344D01*
X217464938Y-119564586D01*
X217464936Y-119564596D01*
X217444341Y-119799999D01*
X217444341Y-119800000D01*
X217464936Y-120035403D01*
X217464938Y-120035413D01*
X217526094Y-120263655D01*
X217526096Y-120263659D01*
X217526097Y-120263663D01*
X217576031Y-120370746D01*
X217625964Y-120477828D01*
X217625965Y-120477830D01*
X217761505Y-120671402D01*
X217928597Y-120838494D01*
X218086031Y-120948730D01*
X218129656Y-121003307D01*
X218136850Y-121072805D01*
X218105327Y-121135160D01*
X218086032Y-121151880D01*
X217928922Y-121261890D01*
X217928920Y-121261891D01*
X217761894Y-121428917D01*
X217626399Y-121622421D01*
X217526570Y-121836507D01*
X217526567Y-121836513D01*
X217469364Y-122049999D01*
X217469364Y-122050000D01*
X218521031Y-122050000D01*
X218488481Y-122100649D01*
X218450000Y-122231705D01*
X218450000Y-122368295D01*
X218488481Y-122499351D01*
X218521031Y-122550000D01*
X217469364Y-122550000D01*
X217526567Y-122763486D01*
X217526570Y-122763492D01*
X217626399Y-122977577D01*
X217626400Y-122977579D01*
X217761886Y-123171073D01*
X217761891Y-123171079D01*
X217928920Y-123338108D01*
X217928926Y-123338113D01*
X218122420Y-123473599D01*
X218122422Y-123473600D01*
X218336507Y-123573429D01*
X218336516Y-123573433D01*
X218564678Y-123634568D01*
X218675000Y-123644219D01*
X218675000Y-122708018D01*
X218789801Y-122760446D01*
X218891025Y-122775000D01*
X218958975Y-122775000D01*
X219060199Y-122760446D01*
X219175000Y-122708018D01*
X219175000Y-123644219D01*
X219285320Y-123634568D01*
X219285323Y-123634568D01*
X219513483Y-123573433D01*
X219513492Y-123573429D01*
X219727577Y-123473600D01*
X219727579Y-123473599D01*
X219921073Y-123338113D01*
X219921079Y-123338108D01*
X220088105Y-123171082D01*
X220223600Y-122977578D01*
X220323429Y-122763492D01*
X220323432Y-122763486D01*
X220380636Y-122550000D01*
X219328969Y-122550000D01*
X219361519Y-122499351D01*
X219400000Y-122368295D01*
X219400000Y-122231705D01*
X219361519Y-122100649D01*
X219328969Y-122050000D01*
X220380636Y-122050000D01*
X220380635Y-122049999D01*
X220323432Y-121836513D01*
X220323429Y-121836507D01*
X220223600Y-121622422D01*
X220223599Y-121622420D01*
X220088113Y-121428926D01*
X220088108Y-121428920D01*
X219921079Y-121261891D01*
X219921073Y-121261886D01*
X219763967Y-121151880D01*
X219720342Y-121097303D01*
X219713148Y-121027805D01*
X219744671Y-120965450D01*
X219763960Y-120948735D01*
X219921401Y-120838495D01*
X220088495Y-120671401D01*
X220224035Y-120477830D01*
X220323903Y-120263663D01*
X220385063Y-120035408D01*
X220405659Y-119800000D01*
X220385063Y-119564592D01*
X220323903Y-119336337D01*
X220224035Y-119122171D01*
X220224034Y-119122169D01*
X220088494Y-118928597D01*
X219921403Y-118761506D01*
X219810209Y-118683648D01*
X219764401Y-118651573D01*
X219720778Y-118596999D01*
X219713584Y-118527500D01*
X219745106Y-118465145D01*
X219764398Y-118448428D01*
X219921401Y-118338495D01*
X220088495Y-118171401D01*
X220224035Y-117977830D01*
X220323903Y-117763663D01*
X220385063Y-117535408D01*
X220405659Y-117300000D01*
X220385063Y-117064592D01*
X220323903Y-116836337D01*
X220224035Y-116622171D01*
X220224034Y-116622169D01*
X220088494Y-116428597D01*
X219921403Y-116261506D01*
X219865187Y-116222144D01*
X219764401Y-116151573D01*
X219720778Y-116096999D01*
X219713584Y-116027500D01*
X219745106Y-115965145D01*
X219764398Y-115948428D01*
X219921401Y-115838495D01*
X220088495Y-115671401D01*
X220224035Y-115477830D01*
X220323903Y-115263663D01*
X220385063Y-115035408D01*
X220405659Y-114800000D01*
X220385063Y-114564592D01*
X220323903Y-114336337D01*
X220224035Y-114122171D01*
X220224034Y-114122169D01*
X220088494Y-113928597D01*
X219921403Y-113761506D01*
X219856718Y-113716214D01*
X219764401Y-113651573D01*
X219720778Y-113596999D01*
X219713584Y-113527500D01*
X219745106Y-113465145D01*
X219764398Y-113448428D01*
X219921401Y-113338495D01*
X220088495Y-113171401D01*
X220224035Y-112977830D01*
X220323903Y-112763663D01*
X220385063Y-112535408D01*
X220405659Y-112300000D01*
X220385063Y-112064592D01*
X220323903Y-111836337D01*
X220224035Y-111622171D01*
X220224034Y-111622169D01*
X220088494Y-111428597D01*
X219921403Y-111261506D01*
X219824272Y-111193495D01*
X219764401Y-111151573D01*
X219720778Y-111096999D01*
X219713584Y-111027500D01*
X219745106Y-110965145D01*
X219764398Y-110948428D01*
X219921401Y-110838495D01*
X220088495Y-110671401D01*
X220224035Y-110477830D01*
X220323903Y-110263663D01*
X220385063Y-110035408D01*
X220405659Y-109800000D01*
X220385063Y-109564592D01*
X220323903Y-109336337D01*
X220224035Y-109122171D01*
X220224034Y-109122169D01*
X220088494Y-108928597D01*
X219921403Y-108761506D01*
X219865187Y-108722144D01*
X219764401Y-108651573D01*
X219720778Y-108596999D01*
X219713584Y-108527500D01*
X219745106Y-108465145D01*
X219764398Y-108448428D01*
X219921401Y-108338495D01*
X220088495Y-108171401D01*
X220224035Y-107977830D01*
X220323903Y-107763663D01*
X220385063Y-107535408D01*
X220405659Y-107300000D01*
X220385063Y-107064592D01*
X220330739Y-106861851D01*
X220323905Y-106836344D01*
X220323904Y-106836343D01*
X220323903Y-106836337D01*
X220224035Y-106622171D01*
X220224034Y-106622169D01*
X220088494Y-106428597D01*
X219921403Y-106261506D01*
X219825636Y-106194450D01*
X219764401Y-106151573D01*
X219720778Y-106096999D01*
X219713584Y-106027500D01*
X219745106Y-105965145D01*
X219764398Y-105948428D01*
X219921401Y-105838495D01*
X220088495Y-105671401D01*
X220224035Y-105477830D01*
X220323903Y-105263663D01*
X220385063Y-105035408D01*
X220405659Y-104800000D01*
X220385063Y-104564592D01*
X220323903Y-104336337D01*
X220224035Y-104122171D01*
X220224034Y-104122169D01*
X220088494Y-103928597D01*
X219921403Y-103761506D01*
X219835036Y-103701032D01*
X219764401Y-103651573D01*
X219720778Y-103596999D01*
X219713584Y-103527500D01*
X219745106Y-103465145D01*
X219764398Y-103448428D01*
X219921401Y-103338495D01*
X220088495Y-103171401D01*
X220224035Y-102977830D01*
X220323903Y-102763663D01*
X220385063Y-102535408D01*
X220405659Y-102300000D01*
X220385063Y-102064592D01*
X220323903Y-101836337D01*
X220224035Y-101622171D01*
X220224034Y-101622169D01*
X220088494Y-101428597D01*
X219921403Y-101261506D01*
X219816683Y-101188181D01*
X219764401Y-101151573D01*
X219720778Y-101096999D01*
X219713584Y-101027500D01*
X219745106Y-100965145D01*
X219764398Y-100948428D01*
X219921401Y-100838495D01*
X220088495Y-100671401D01*
X220224035Y-100477830D01*
X220323903Y-100263663D01*
X220385063Y-100035408D01*
X220405659Y-99800000D01*
X220385063Y-99564592D01*
X220323903Y-99336337D01*
X220224035Y-99122171D01*
X220224034Y-99122169D01*
X220088494Y-98928597D01*
X219921403Y-98761506D01*
X219808164Y-98682216D01*
X219764401Y-98651573D01*
X219720778Y-98596999D01*
X219713584Y-98527500D01*
X219745106Y-98465145D01*
X219764398Y-98448428D01*
X219921401Y-98338495D01*
X220088495Y-98171401D01*
X220224035Y-97977830D01*
X220323903Y-97763663D01*
X220385063Y-97535408D01*
X220405659Y-97300000D01*
X220385063Y-97064592D01*
X220323903Y-96836337D01*
X220224035Y-96622171D01*
X220224034Y-96622169D01*
X220088494Y-96428597D01*
X219921403Y-96261506D01*
X219865187Y-96222144D01*
X219764401Y-96151573D01*
X219720778Y-96096999D01*
X219713584Y-96027500D01*
X219745106Y-95965145D01*
X219764398Y-95948428D01*
X219921401Y-95838495D01*
X220088495Y-95671401D01*
X220224035Y-95477830D01*
X220323903Y-95263663D01*
X220385063Y-95035408D01*
X220405659Y-94800000D01*
X220385063Y-94564592D01*
X220323903Y-94336337D01*
X220224035Y-94122171D01*
X220224034Y-94122169D01*
X220088494Y-93928597D01*
X219921403Y-93761506D01*
X219865187Y-93722144D01*
X219764401Y-93651573D01*
X219720778Y-93596999D01*
X219713584Y-93527500D01*
X219745106Y-93465145D01*
X219764398Y-93448428D01*
X219921401Y-93338495D01*
X220088495Y-93171401D01*
X220224035Y-92977830D01*
X220323903Y-92763663D01*
X220385063Y-92535408D01*
X220405659Y-92300000D01*
X220385063Y-92064592D01*
X220323903Y-91836337D01*
X220224035Y-91622171D01*
X220224034Y-91622169D01*
X220088494Y-91428597D01*
X219941295Y-91281398D01*
X219907810Y-91220075D01*
X219912794Y-91150383D01*
X219954666Y-91094450D01*
X219963880Y-91088178D01*
X220000083Y-91065848D01*
X220118656Y-90992712D01*
X220242712Y-90868656D01*
X220334814Y-90719334D01*
X220389999Y-90552797D01*
X220400500Y-90450009D01*
X220400499Y-89149992D01*
X220389999Y-89047203D01*
X220334814Y-88880666D01*
X220242712Y-88731344D01*
X220118656Y-88607288D01*
X219969334Y-88515186D01*
X219802797Y-88460001D01*
X219802795Y-88460000D01*
X219700010Y-88449500D01*
X218149998Y-88449500D01*
X218149981Y-88449501D01*
X218047203Y-88460000D01*
X218047200Y-88460001D01*
X217880668Y-88515185D01*
X217880663Y-88515187D01*
X217731342Y-88607289D01*
X217607289Y-88731342D01*
X217515187Y-88880663D01*
X217515186Y-88880666D01*
X217460001Y-89047203D01*
X217460001Y-89047204D01*
X217460000Y-89047204D01*
X217449500Y-89149983D01*
X217449500Y-90450001D01*
X217449501Y-90450018D01*
X217460000Y-90552796D01*
X217460001Y-90552799D01*
X217515185Y-90719331D01*
X217515187Y-90719336D01*
X217607289Y-90868657D01*
X217731344Y-90992712D01*
X217886120Y-91088178D01*
X217932845Y-91140126D01*
X217944068Y-91209088D01*
X217916224Y-91273171D01*
X217908706Y-91281398D01*
X217761501Y-91428603D01*
X217761501Y-91428604D01*
X217625967Y-91622165D01*
X217625965Y-91622169D01*
X217526098Y-91836335D01*
X217526094Y-91836344D01*
X217464938Y-92064586D01*
X217464936Y-92064596D01*
X217444341Y-92299999D01*
X217444341Y-92300000D01*
X217464936Y-92535403D01*
X217464938Y-92535413D01*
X217526094Y-92763655D01*
X217526096Y-92763659D01*
X217526097Y-92763663D01*
X217536895Y-92786819D01*
X217625964Y-92977828D01*
X217625965Y-92977830D01*
X217761505Y-93171402D01*
X217928597Y-93338494D01*
X218085595Y-93448425D01*
X218129220Y-93503002D01*
X218136414Y-93572500D01*
X218104891Y-93634855D01*
X218085595Y-93651575D01*
X217928597Y-93761505D01*
X217761506Y-93928597D01*
X217761501Y-93928604D01*
X217625967Y-94122165D01*
X217625965Y-94122169D01*
X217526098Y-94336335D01*
X217526094Y-94336344D01*
X217464938Y-94564586D01*
X217464936Y-94564596D01*
X217444341Y-94799999D01*
X217444341Y-94800000D01*
X217464936Y-95035403D01*
X217464938Y-95035413D01*
X217526094Y-95263655D01*
X217526096Y-95263659D01*
X217526097Y-95263663D01*
X217576031Y-95370746D01*
X217625964Y-95477828D01*
X217625965Y-95477830D01*
X217761505Y-95671402D01*
X217928597Y-95838494D01*
X218085595Y-95948425D01*
X218129220Y-96003002D01*
X218136414Y-96072500D01*
X218104891Y-96134855D01*
X218085595Y-96151575D01*
X217928597Y-96261505D01*
X217761506Y-96428597D01*
X217761501Y-96428604D01*
X217625967Y-96622165D01*
X217625965Y-96622169D01*
X217526098Y-96836335D01*
X217526094Y-96836344D01*
X217464938Y-97064586D01*
X217464936Y-97064596D01*
X217444341Y-97299999D01*
X217444341Y-97300000D01*
X217464936Y-97535403D01*
X217464938Y-97535413D01*
X217526094Y-97763655D01*
X217526096Y-97763659D01*
X217526097Y-97763663D01*
X217576031Y-97870746D01*
X217625964Y-97977828D01*
X217625965Y-97977830D01*
X217761505Y-98171402D01*
X217928597Y-98338494D01*
X218085595Y-98448425D01*
X218129220Y-98503002D01*
X218136414Y-98572500D01*
X218104891Y-98634855D01*
X218085595Y-98651575D01*
X217928597Y-98761505D01*
X217761506Y-98928597D01*
X217761501Y-98928603D01*
X217626348Y-99121623D01*
X217571771Y-99165248D01*
X217524773Y-99174500D01*
X215774500Y-99174500D01*
X215707461Y-99154815D01*
X215661706Y-99102011D01*
X215650500Y-99050500D01*
X215650500Y-94157737D01*
X215652223Y-94142120D01*
X215651938Y-94142093D01*
X215652672Y-94134331D01*
X215650500Y-94065203D01*
X215650500Y-94035651D01*
X215650500Y-94035650D01*
X215649629Y-94028759D01*
X215649172Y-94022945D01*
X215647709Y-93976372D01*
X215642122Y-93957144D01*
X215638174Y-93938084D01*
X215635664Y-93918208D01*
X215618507Y-93874875D01*
X215616619Y-93869359D01*
X215603619Y-93824612D01*
X215602599Y-93822888D01*
X215593418Y-93807363D01*
X215584860Y-93789894D01*
X215577486Y-93771268D01*
X215577483Y-93771264D01*
X215577483Y-93771263D01*
X215550098Y-93733571D01*
X215546890Y-93728687D01*
X215523172Y-93688582D01*
X215523163Y-93688571D01*
X215509005Y-93674413D01*
X215496370Y-93659620D01*
X215484593Y-93643412D01*
X215448693Y-93613713D01*
X215444381Y-93609790D01*
X213738960Y-91904369D01*
X213705475Y-91843046D01*
X213703323Y-91829668D01*
X213685674Y-91661744D01*
X213627179Y-91481716D01*
X213532533Y-91317784D01*
X213405871Y-91177112D01*
X213369082Y-91150383D01*
X213252734Y-91065851D01*
X213252729Y-91065848D01*
X213079807Y-90988857D01*
X213079802Y-90988855D01*
X212934001Y-90957865D01*
X212894646Y-90949500D01*
X212705354Y-90949500D01*
X212672897Y-90956398D01*
X212520197Y-90988855D01*
X212520192Y-90988857D01*
X212347270Y-91065848D01*
X212347265Y-91065851D01*
X212194129Y-91177111D01*
X212067466Y-91317785D01*
X211972821Y-91481715D01*
X211972818Y-91481722D01*
X211927184Y-91622170D01*
X211914326Y-91661744D01*
X211894540Y-91850000D01*
X211914326Y-92038256D01*
X211914327Y-92038259D01*
X211972818Y-92218278D01*
X211974989Y-92223152D01*
X211984276Y-92292402D01*
X211954650Y-92355679D01*
X211895516Y-92392895D01*
X211825650Y-92392233D01*
X211788826Y-92373911D01*
X211777730Y-92365849D01*
X211777728Y-92365848D01*
X211777729Y-92365848D01*
X211604807Y-92288857D01*
X211604802Y-92288855D01*
X211459001Y-92257865D01*
X211419646Y-92249500D01*
X211230354Y-92249500D01*
X211197897Y-92256398D01*
X211045197Y-92288855D01*
X211045192Y-92288857D01*
X210872270Y-92365848D01*
X210872265Y-92365851D01*
X210719129Y-92477111D01*
X210592466Y-92617785D01*
X210497821Y-92781715D01*
X210497818Y-92781722D01*
X210439327Y-92961740D01*
X210439326Y-92961744D01*
X210419540Y-93150000D01*
X210439326Y-93338256D01*
X210439327Y-93338259D01*
X210497818Y-93518277D01*
X210497821Y-93518284D01*
X210592467Y-93682216D01*
X210705150Y-93807363D01*
X210719129Y-93822888D01*
X210872265Y-93934148D01*
X210872270Y-93934151D01*
X211045192Y-94011142D01*
X211045197Y-94011144D01*
X211230354Y-94050500D01*
X211289548Y-94050500D01*
X211356587Y-94070185D01*
X211377229Y-94086819D01*
X213888181Y-96597771D01*
X213921666Y-96659094D01*
X213924500Y-96685452D01*
X213924500Y-97129287D01*
X213904815Y-97196326D01*
X213852011Y-97242081D01*
X213782853Y-97252025D01*
X213774724Y-97250578D01*
X213769651Y-97249500D01*
X213769646Y-97249500D01*
X213580354Y-97249500D01*
X213568475Y-97252025D01*
X213395197Y-97288855D01*
X213395192Y-97288857D01*
X213222270Y-97365848D01*
X213222265Y-97365851D01*
X213069129Y-97477111D01*
X212942466Y-97617785D01*
X212847821Y-97781715D01*
X212847818Y-97781722D01*
X212789327Y-97961740D01*
X212789326Y-97961744D01*
X212769540Y-98150000D01*
X212789326Y-98338256D01*
X212789327Y-98338259D01*
X212847818Y-98518277D01*
X212847821Y-98518284D01*
X212942466Y-98682215D01*
X212946285Y-98687471D01*
X212945248Y-98688224D01*
X212972479Y-98744968D01*
X212963853Y-98814303D01*
X212937780Y-98852627D01*
X210602228Y-101188181D01*
X210540905Y-101221666D01*
X210514547Y-101224500D01*
X210455354Y-101224500D01*
X210422897Y-101231398D01*
X210270197Y-101263855D01*
X210270192Y-101263857D01*
X210097270Y-101340848D01*
X210097265Y-101340851D01*
X209944129Y-101452111D01*
X209817466Y-101592785D01*
X209722821Y-101756715D01*
X209722818Y-101756722D01*
X209664327Y-101936740D01*
X209664326Y-101936744D01*
X209644540Y-102125000D01*
X209664326Y-102313256D01*
X209664327Y-102313259D01*
X209722818Y-102493277D01*
X209722821Y-102493284D01*
X209817467Y-102657216D01*
X209944129Y-102797888D01*
X210097270Y-102909151D01*
X210097278Y-102909154D01*
X210098436Y-102909824D01*
X210098978Y-102910392D01*
X210102527Y-102912971D01*
X210102055Y-102913619D01*
X210146652Y-102960391D01*
X210159876Y-103028998D01*
X210133908Y-103093863D01*
X210124118Y-103104893D01*
X206490832Y-106738181D01*
X206429509Y-106771666D01*
X206403151Y-106774500D01*
X205996037Y-106774500D01*
X205980420Y-106772776D01*
X205980393Y-106773062D01*
X205972631Y-106772327D01*
X205903503Y-106774500D01*
X205873949Y-106774500D01*
X205873228Y-106774590D01*
X205867056Y-106775369D01*
X205861244Y-106775826D01*
X205814672Y-106777290D01*
X205814671Y-106777290D01*
X205795428Y-106782881D01*
X205776378Y-106786825D01*
X205756510Y-106789334D01*
X205756508Y-106789335D01*
X205713183Y-106806488D01*
X205707656Y-106808380D01*
X205662909Y-106821381D01*
X205662908Y-106821382D01*
X205645666Y-106831579D01*
X205628198Y-106840137D01*
X205609568Y-106847513D01*
X205609566Y-106847514D01*
X205571875Y-106874898D01*
X205566993Y-106878105D01*
X205526878Y-106901830D01*
X205512707Y-106916000D01*
X205497922Y-106928628D01*
X205481711Y-106940407D01*
X205452008Y-106976310D01*
X205448076Y-106980631D01*
X201716208Y-110712498D01*
X201703951Y-110722319D01*
X201704134Y-110722540D01*
X201698123Y-110727512D01*
X201650772Y-110777935D01*
X201629889Y-110798818D01*
X201629877Y-110798831D01*
X201625621Y-110804316D01*
X201621837Y-110808746D01*
X201589937Y-110842717D01*
X201589936Y-110842719D01*
X201580284Y-110860275D01*
X201569610Y-110876525D01*
X201557329Y-110892360D01*
X201557324Y-110892367D01*
X201538815Y-110935137D01*
X201536245Y-110940383D01*
X201513803Y-110981205D01*
X201508822Y-111000606D01*
X201502521Y-111019009D01*
X201494562Y-111037401D01*
X201494561Y-111037404D01*
X201487271Y-111083426D01*
X201486087Y-111089145D01*
X201474501Y-111134271D01*
X201474500Y-111134281D01*
X201474500Y-111154315D01*
X201472973Y-111173714D01*
X201469840Y-111193493D01*
X201469840Y-111193494D01*
X201474225Y-111239882D01*
X201474500Y-111245720D01*
X201474500Y-120465852D01*
X201454815Y-120532891D01*
X201402011Y-120578646D01*
X201332853Y-120588590D01*
X201269297Y-120559565D01*
X201262819Y-120553533D01*
X194461819Y-113752533D01*
X194428334Y-113691210D01*
X194425500Y-113664852D01*
X194425500Y-112432738D01*
X194427223Y-112417121D01*
X194426938Y-112417094D01*
X194427672Y-112409332D01*
X194425500Y-112340203D01*
X194425500Y-112310651D01*
X194425500Y-112310650D01*
X194424629Y-112303759D01*
X194424172Y-112297945D01*
X194422709Y-112251372D01*
X194417122Y-112232144D01*
X194413174Y-112213084D01*
X194410663Y-112193204D01*
X194393512Y-112149887D01*
X194391619Y-112144358D01*
X194378618Y-112099609D01*
X194378616Y-112099606D01*
X194368423Y-112082371D01*
X194359861Y-112064894D01*
X194352487Y-112046270D01*
X194352486Y-112046268D01*
X194325079Y-112008545D01*
X194321888Y-112003686D01*
X194298172Y-111963583D01*
X194298165Y-111963574D01*
X194284006Y-111949415D01*
X194271368Y-111934619D01*
X194259594Y-111918413D01*
X194223688Y-111888709D01*
X194219376Y-111884786D01*
X185536819Y-103202228D01*
X185503334Y-103140905D01*
X185500500Y-103114547D01*
X185500500Y-101360452D01*
X185520185Y-101293413D01*
X185536819Y-101272771D01*
X186422771Y-100386819D01*
X186484094Y-100353334D01*
X186510452Y-100350500D01*
X186569644Y-100350500D01*
X186569646Y-100350500D01*
X186754803Y-100311144D01*
X186927730Y-100234151D01*
X187080871Y-100122888D01*
X187207533Y-99982216D01*
X187302179Y-99818284D01*
X187360674Y-99638256D01*
X187380460Y-99450000D01*
X187360674Y-99261744D01*
X187302179Y-99081716D01*
X187207533Y-98917784D01*
X187080871Y-98777112D01*
X187080870Y-98777111D01*
X186927734Y-98665851D01*
X186927729Y-98665848D01*
X186754807Y-98588857D01*
X186754802Y-98588855D01*
X186609001Y-98557865D01*
X186569646Y-98549500D01*
X186380354Y-98549500D01*
X186347897Y-98556398D01*
X186195197Y-98588855D01*
X186195192Y-98588857D01*
X186022270Y-98665848D01*
X186022265Y-98665851D01*
X185869129Y-98777111D01*
X185742466Y-98917785D01*
X185647821Y-99081715D01*
X185647818Y-99081722D01*
X185617673Y-99174500D01*
X185589326Y-99261744D01*
X185571679Y-99429649D01*
X185545094Y-99494263D01*
X185536039Y-99504368D01*
X184491208Y-100549199D01*
X184478951Y-100559020D01*
X184479134Y-100559241D01*
X184473123Y-100564213D01*
X184425772Y-100614636D01*
X184404889Y-100635519D01*
X184404877Y-100635532D01*
X184400621Y-100641017D01*
X184396837Y-100645447D01*
X184364937Y-100679418D01*
X184364936Y-100679420D01*
X184355284Y-100696976D01*
X184344610Y-100713226D01*
X184332329Y-100729061D01*
X184332324Y-100729068D01*
X184313815Y-100771838D01*
X184311245Y-100777084D01*
X184288803Y-100817906D01*
X184283822Y-100837307D01*
X184277521Y-100855710D01*
X184269562Y-100874102D01*
X184269561Y-100874105D01*
X184262271Y-100920127D01*
X184261087Y-100925846D01*
X184249501Y-100970972D01*
X184249500Y-100970982D01*
X184249500Y-100991016D01*
X184247973Y-101010415D01*
X184244840Y-101030194D01*
X184244840Y-101030195D01*
X176750500Y-101030195D01*
X176750500Y-86524500D01*
X176770185Y-86457461D01*
X176822989Y-86411706D01*
X176874500Y-86400500D01*
X189676000Y-86400500D01*
X189743039Y-86420185D01*
G37*
%TD.AperFunction*%
%TA.AperFunction,Conductor*%
G36*
X194672540Y-157022185D02*
G01*
X194718295Y-157074989D01*
X194729501Y-157126500D01*
X194729501Y-157378500D01*
X194709816Y-157445539D01*
X194657012Y-157491294D01*
X194605501Y-157502500D01*
X193990000Y-157502500D01*
X193990000Y-157002500D01*
X194605501Y-157002500D01*
X194672540Y-157022185D01*
G37*
%TD.AperFunction*%
%TA.AperFunction,Conductor*%
G36*
X204540000Y-157502500D02*
G01*
X203954501Y-157502500D01*
X203887462Y-157482815D01*
X203841707Y-157430011D01*
X203830501Y-157378500D01*
X203830501Y-157126500D01*
X203850186Y-157059461D01*
X203902990Y-157013706D01*
X203954501Y-157002500D01*
X204540000Y-157002500D01*
X204540000Y-157502500D01*
G37*
%TD.AperFunction*%
%TD*%
M02*
