%TF.GenerationSoftware,KiCad,Pcbnew,7.0.8*%
%TF.CreationDate,2025-04-01T23:17:51+07:00*%
%TF.ProjectId,esp32_smth,65737033-325f-4736-9d74-682e6b696361,rev?*%
%TF.SameCoordinates,Original*%
%TF.FileFunction,Soldermask,Top*%
%TF.FilePolarity,Negative*%
%FSLAX46Y46*%
G04 Gerber Fmt 4.6, Leading zero omitted, Abs format (unit mm)*
G04 Created by KiCad (PCBNEW 7.0.8) date 2025-04-01 23:17:51*
%MOMM*%
%LPD*%
G01*
G04 APERTURE LIST*
G04 Aperture macros list*
%AMRoundRect*
0 Rectangle with rounded corners*
0 $1 Rounding radius*
0 $2 $3 $4 $5 $6 $7 $8 $9 X,Y pos of 4 corners*
0 Add a 4 corners polygon primitive as box body*
4,1,4,$2,$3,$4,$5,$6,$7,$8,$9,$2,$3,0*
0 Add four circle primitives for the rounded corners*
1,1,$1+$1,$2,$3*
1,1,$1+$1,$4,$5*
1,1,$1+$1,$6,$7*
1,1,$1+$1,$8,$9*
0 Add four rect primitives between the rounded corners*
20,1,$1+$1,$2,$3,$4,$5,0*
20,1,$1+$1,$4,$5,$6,$7,0*
20,1,$1+$1,$6,$7,$8,$9,0*
20,1,$1+$1,$8,$9,$2,$3,0*%
G04 Aperture macros list end*
%ADD10R,2.600000X2.600000*%
%ADD11C,2.600000*%
%ADD12C,0.650000*%
%ADD13R,0.540000X1.100000*%
%ADD14R,0.300000X1.100000*%
%ADD15O,1.200000X2.250000*%
%ADD16RoundRect,0.250000X-0.650000X0.412500X-0.650000X-0.412500X0.650000X-0.412500X0.650000X0.412500X0*%
%ADD17RoundRect,0.250000X-0.725000X0.600000X-0.725000X-0.600000X0.725000X-0.600000X0.725000X0.600000X0*%
%ADD18O,1.950000X1.700000*%
%ADD19RoundRect,0.250000X0.650000X-0.412500X0.650000X0.412500X-0.650000X0.412500X-0.650000X-0.412500X0*%
%ADD20RoundRect,0.150000X0.150000X-0.587500X0.150000X0.587500X-0.150000X0.587500X-0.150000X-0.587500X0*%
%ADD21RoundRect,0.135750X-0.386250X-0.101250X0.386250X-0.101250X0.386250X0.101250X-0.386250X0.101250X0*%
%ADD22RoundRect,0.135750X-0.101250X-0.386250X0.101250X-0.386250X0.101250X0.386250X-0.101250X0.386250X0*%
%ADD23RoundRect,0.102000X-0.550000X-0.550000X0.550000X-0.550000X0.550000X0.550000X-0.550000X0.550000X0*%
%ADD24RoundRect,0.250000X-0.625000X0.400000X-0.625000X-0.400000X0.625000X-0.400000X0.625000X0.400000X0*%
%ADD25RoundRect,0.250000X0.650000X-1.500000X0.650000X1.500000X-0.650000X1.500000X-0.650000X-1.500000X0*%
%ADD26RoundRect,0.250000X-0.412500X-0.650000X0.412500X-0.650000X0.412500X0.650000X-0.412500X0.650000X0*%
%ADD27RoundRect,0.250000X0.412500X0.650000X-0.412500X0.650000X-0.412500X-0.650000X0.412500X-0.650000X0*%
%ADD28R,1.500000X0.900000*%
%ADD29R,0.900000X1.500000*%
%ADD30R,0.900000X0.900000*%
%ADD31R,1.700000X0.900000*%
%ADD32R,1.275000X1.800000*%
%ADD33O,1.275000X1.800000*%
%ADD34RoundRect,0.150000X-0.825000X-0.150000X0.825000X-0.150000X0.825000X0.150000X-0.825000X0.150000X0*%
%ADD35RoundRect,0.250001X0.624999X-0.462499X0.624999X0.462499X-0.624999X0.462499X-0.624999X-0.462499X0*%
%ADD36RoundRect,0.250000X0.625000X-0.400000X0.625000X0.400000X-0.625000X0.400000X-0.625000X-0.400000X0*%
%ADD37RoundRect,0.250000X-0.650000X1.500000X-0.650000X-1.500000X0.650000X-1.500000X0.650000X1.500000X0*%
%ADD38RoundRect,0.250000X-0.750000X0.600000X-0.750000X-0.600000X0.750000X-0.600000X0.750000X0.600000X0*%
%ADD39O,2.000000X1.700000*%
%ADD40RoundRect,0.250000X-0.400000X-0.625000X0.400000X-0.625000X0.400000X0.625000X-0.400000X0.625000X0*%
G04 APERTURE END LIST*
D10*
%TO.C,J4*%
X182675000Y-148850000D03*
D11*
X182675000Y-154850000D03*
X187375000Y-151850000D03*
%TD*%
D12*
%TO.C,J2*%
X195535000Y-152572500D03*
X203035000Y-152572500D03*
D13*
X196085000Y-151372500D03*
X196835000Y-151372500D03*
D14*
X198035000Y-151372500D03*
X199035000Y-151372500D03*
X199535000Y-151372500D03*
X200535000Y-151372500D03*
D13*
X201735000Y-151372500D03*
X202485000Y-151372500D03*
X202485000Y-151372500D03*
X201735000Y-151372500D03*
D14*
X201035000Y-151372500D03*
X200035000Y-151372500D03*
X198535000Y-151372500D03*
X197535000Y-151372500D03*
D13*
X196835000Y-151372500D03*
X196085000Y-151372500D03*
D15*
X193690000Y-157252500D03*
X193710000Y-152652500D03*
X204840000Y-157252500D03*
X204860000Y-152652500D03*
%TD*%
D16*
%TO.C,C2*%
X187075000Y-132562500D03*
X187075000Y-135687500D03*
%TD*%
D17*
%TO.C,J1*%
X218925000Y-89800000D03*
D18*
X218925000Y-92300000D03*
X218925000Y-94800000D03*
X218925000Y-97300000D03*
X218925000Y-99800000D03*
X218925000Y-102300000D03*
X218925000Y-104800000D03*
X218925000Y-107300000D03*
X218925000Y-109800000D03*
X218925000Y-112300000D03*
X218925000Y-114800000D03*
X218925000Y-117300000D03*
X218925000Y-119800000D03*
X218925000Y-122300000D03*
%TD*%
D19*
%TO.C,C9*%
X183200000Y-90775000D03*
X183200000Y-87650000D03*
%TD*%
D20*
%TO.C,Q2*%
X218300000Y-131175000D03*
X220200000Y-131175000D03*
X219250000Y-129300000D03*
%TD*%
D19*
%TO.C,C7*%
X179325000Y-114887500D03*
X179325000Y-111762500D03*
%TD*%
D21*
%TO.C,U3*%
X178740000Y-120300000D03*
X178740000Y-120800000D03*
X178740000Y-121300000D03*
X178740000Y-121800000D03*
D22*
X179425000Y-122485000D03*
X179925000Y-122485000D03*
X180425000Y-122485000D03*
X180925000Y-122485000D03*
D21*
X181610000Y-121800000D03*
X181610000Y-121300000D03*
X181610000Y-120800000D03*
X181610000Y-120300000D03*
D22*
X180925000Y-119615000D03*
X180425000Y-119615000D03*
X179925000Y-119615000D03*
X179425000Y-119615000D03*
D23*
X180175000Y-121050000D03*
%TD*%
D24*
%TO.C,R6*%
X218450000Y-147425000D03*
X218450000Y-150525000D03*
%TD*%
D25*
%TO.C,D1*%
X195075000Y-137425000D03*
X195075000Y-132425000D03*
%TD*%
D26*
%TO.C,C5*%
X178287500Y-124875000D03*
X181412500Y-124875000D03*
%TD*%
D27*
%TO.C,C11*%
X209287500Y-143950000D03*
X206162500Y-143950000D03*
%TD*%
%TO.C,C13*%
X209275000Y-148500000D03*
X206150000Y-148500000D03*
%TD*%
D28*
%TO.C,U1*%
X190050000Y-88040000D03*
X190050000Y-89310000D03*
X190050000Y-90580000D03*
X190050000Y-91850000D03*
X190050000Y-93120000D03*
X190050000Y-94390000D03*
X190050000Y-95660000D03*
X190050000Y-96930000D03*
X190050000Y-98200000D03*
X190050000Y-99470000D03*
X190050000Y-100740000D03*
X190050000Y-102010000D03*
X190050000Y-103280000D03*
X190050000Y-104550000D03*
D29*
X193080000Y-105800000D03*
X194350000Y-105800000D03*
X195620000Y-105800000D03*
X196890000Y-105800000D03*
X198160000Y-105800000D03*
X199430000Y-105800000D03*
X200700000Y-105800000D03*
X201970000Y-105800000D03*
X203240000Y-105800000D03*
X204510000Y-105800000D03*
D28*
X207550000Y-104550000D03*
X207550000Y-103280000D03*
X207550000Y-102010000D03*
X207550000Y-100740000D03*
X207550000Y-99470000D03*
X207550000Y-98200000D03*
X207550000Y-96930000D03*
X207550000Y-95660000D03*
X207550000Y-94390000D03*
X207550000Y-93120000D03*
X207550000Y-91850000D03*
X207550000Y-90580000D03*
X207550000Y-89310000D03*
X207550000Y-88040000D03*
D30*
X195900000Y-94360000D03*
X195900000Y-94360000D03*
X195900000Y-95760000D03*
X195900000Y-97160000D03*
X195900000Y-97160000D03*
X197300000Y-94360000D03*
X197300000Y-95760000D03*
X197300000Y-97160000D03*
X197300000Y-97160000D03*
X198700000Y-94360000D03*
X198700000Y-95760000D03*
X198700000Y-97160000D03*
%TD*%
D31*
%TO.C,SW1*%
X210700000Y-153050000D03*
X210700000Y-156450000D03*
%TD*%
D27*
%TO.C,C10*%
X186450000Y-95775000D03*
X183325000Y-95775000D03*
%TD*%
D31*
%TO.C,SW2*%
X215400000Y-153000000D03*
X215400000Y-156400000D03*
%TD*%
D32*
%TO.C,U2*%
X185775000Y-143630000D03*
D33*
X184075000Y-143630000D03*
X182375000Y-143630000D03*
X180675000Y-143630000D03*
X178975000Y-143630000D03*
%TD*%
D34*
%TO.C,U4*%
X205025000Y-130980000D03*
X205025000Y-132250000D03*
X205025000Y-133520000D03*
X205025000Y-134790000D03*
X205025000Y-136060000D03*
X205025000Y-137330000D03*
X205025000Y-138600000D03*
X205025000Y-139870000D03*
X209975000Y-139870000D03*
X209975000Y-138600000D03*
X209975000Y-137330000D03*
X209975000Y-136060000D03*
X209975000Y-134790000D03*
X209975000Y-133520000D03*
X209975000Y-132250000D03*
X209975000Y-130980000D03*
%TD*%
D35*
%TO.C,L1*%
X190675000Y-135587500D03*
X190675000Y-132612500D03*
%TD*%
D16*
%TO.C,C3*%
X180700000Y-132462500D03*
X180700000Y-135587500D03*
%TD*%
D36*
%TO.C,R4*%
X201475000Y-148200000D03*
X201475000Y-145100000D03*
%TD*%
D19*
%TO.C,C8*%
X186800000Y-90775000D03*
X186800000Y-87650000D03*
%TD*%
%TO.C,C1*%
X189900000Y-146487500D03*
X189900000Y-143362500D03*
%TD*%
D36*
%TO.C,R3*%
X198000000Y-148200000D03*
X198000000Y-145100000D03*
%TD*%
D26*
%TO.C,C4*%
X178287500Y-128775000D03*
X181412500Y-128775000D03*
%TD*%
D37*
%TO.C,D2*%
X194625000Y-143500000D03*
X194625000Y-148500000D03*
%TD*%
D19*
%TO.C,C6*%
X182950000Y-114812500D03*
X182950000Y-111687500D03*
%TD*%
D38*
%TO.C,J3*%
X179625000Y-104900000D03*
D39*
X179625000Y-107400000D03*
%TD*%
D19*
%TO.C,C12*%
X194950000Y-127862500D03*
X194950000Y-124737500D03*
%TD*%
D20*
%TO.C,Q1*%
X213450000Y-131175000D03*
X215350000Y-131175000D03*
X214400000Y-129300000D03*
%TD*%
D40*
%TO.C,R5*%
X183375000Y-93150000D03*
X186475000Y-93150000D03*
%TD*%
D24*
%TO.C,R2*%
X183525000Y-132575000D03*
X183525000Y-135675000D03*
%TD*%
D36*
%TO.C,R1*%
X180675000Y-140750000D03*
X180675000Y-137650000D03*
%TD*%
M02*
