%TF.GenerationSoftware,KiCad,Pcbnew,7.0.8*%
%TF.CreationDate,2025-04-01T23:17:51+07:00*%
%TF.ProjectId,esp32_smth,65737033-325f-4736-9d74-682e6b696361,rev?*%
%TF.SameCoordinates,Original*%
%TF.FileFunction,Paste,Top*%
%TF.FilePolarity,Positive*%
%FSLAX46Y46*%
G04 Gerber Fmt 4.6, Leading zero omitted, Abs format (unit mm)*
G04 Created by KiCad (PCBNEW 7.0.8) date 2025-04-01 23:17:51*
%MOMM*%
%LPD*%
G01*
G04 APERTURE LIST*
G04 Aperture macros list*
%AMRoundRect*
0 Rectangle with rounded corners*
0 $1 Rounding radius*
0 $2 $3 $4 $5 $6 $7 $8 $9 X,Y pos of 4 corners*
0 Add a 4 corners polygon primitive as box body*
4,1,4,$2,$3,$4,$5,$6,$7,$8,$9,$2,$3,0*
0 Add four circle primitives for the rounded corners*
1,1,$1+$1,$2,$3*
1,1,$1+$1,$4,$5*
1,1,$1+$1,$6,$7*
1,1,$1+$1,$8,$9*
0 Add four rect primitives between the rounded corners*
20,1,$1+$1,$2,$3,$4,$5,0*
20,1,$1+$1,$4,$5,$6,$7,0*
20,1,$1+$1,$6,$7,$8,$9,0*
20,1,$1+$1,$8,$9,$2,$3,0*%
G04 Aperture macros list end*
%ADD10C,0.010000*%
%ADD11R,0.540000X1.100000*%
%ADD12R,0.300000X1.100000*%
%ADD13RoundRect,0.250000X-0.650000X0.412500X-0.650000X-0.412500X0.650000X-0.412500X0.650000X0.412500X0*%
%ADD14RoundRect,0.250000X0.650000X-0.412500X0.650000X0.412500X-0.650000X0.412500X-0.650000X-0.412500X0*%
%ADD15RoundRect,0.150000X0.150000X-0.587500X0.150000X0.587500X-0.150000X0.587500X-0.150000X-0.587500X0*%
%ADD16RoundRect,0.033750X-0.386250X-0.101250X0.386250X-0.101250X0.386250X0.101250X-0.386250X0.101250X0*%
%ADD17RoundRect,0.033750X-0.101250X-0.386250X0.101250X-0.386250X0.101250X0.386250X-0.101250X0.386250X0*%
%ADD18RoundRect,0.250000X-0.625000X0.400000X-0.625000X-0.400000X0.625000X-0.400000X0.625000X0.400000X0*%
%ADD19RoundRect,0.250000X0.650000X-1.500000X0.650000X1.500000X-0.650000X1.500000X-0.650000X-1.500000X0*%
%ADD20RoundRect,0.250000X-0.412500X-0.650000X0.412500X-0.650000X0.412500X0.650000X-0.412500X0.650000X0*%
%ADD21RoundRect,0.250000X0.412500X0.650000X-0.412500X0.650000X-0.412500X-0.650000X0.412500X-0.650000X0*%
%ADD22R,1.500000X0.900000*%
%ADD23R,0.900000X1.500000*%
%ADD24R,0.900000X0.900000*%
%ADD25R,1.700000X0.900000*%
%ADD26RoundRect,0.150000X-0.825000X-0.150000X0.825000X-0.150000X0.825000X0.150000X-0.825000X0.150000X0*%
%ADD27RoundRect,0.250001X0.624999X-0.462499X0.624999X0.462499X-0.624999X0.462499X-0.624999X-0.462499X0*%
%ADD28RoundRect,0.250000X0.625000X-0.400000X0.625000X0.400000X-0.625000X0.400000X-0.625000X-0.400000X0*%
%ADD29RoundRect,0.250000X-0.650000X1.500000X-0.650000X-1.500000X0.650000X-1.500000X0.650000X1.500000X0*%
%ADD30RoundRect,0.250000X-0.400000X-0.625000X0.400000X-0.625000X0.400000X0.625000X-0.400000X0.625000X0*%
G04 APERTURE END LIST*
%TO.C,U3*%
D10*
X180525000Y-121400000D02*
X179825000Y-121400000D01*
X179825000Y-120700000D01*
X180525000Y-120700000D01*
X180525000Y-121400000D01*
G36*
X180525000Y-121400000D02*
G01*
X179825000Y-121400000D01*
X179825000Y-120700000D01*
X180525000Y-120700000D01*
X180525000Y-121400000D01*
G37*
%TD*%
D11*
%TO.C,J2*%
X196085000Y-151372500D03*
X196835000Y-151372500D03*
D12*
X198035000Y-151372500D03*
X199035000Y-151372500D03*
X199535000Y-151372500D03*
X200535000Y-151372500D03*
D11*
X201735000Y-151372500D03*
X202485000Y-151372500D03*
X202485000Y-151372500D03*
X201735000Y-151372500D03*
D12*
X201035000Y-151372500D03*
X200035000Y-151372500D03*
X198535000Y-151372500D03*
X197535000Y-151372500D03*
D11*
X196835000Y-151372500D03*
X196085000Y-151372500D03*
%TD*%
D13*
%TO.C,C2*%
X187075000Y-132562500D03*
X187075000Y-135687500D03*
%TD*%
D14*
%TO.C,C9*%
X183200000Y-90775000D03*
X183200000Y-87650000D03*
%TD*%
D15*
%TO.C,Q2*%
X218300000Y-131175000D03*
X220200000Y-131175000D03*
X219250000Y-129300000D03*
%TD*%
D14*
%TO.C,C7*%
X179325000Y-114887500D03*
X179325000Y-111762500D03*
%TD*%
D16*
%TO.C,U3*%
X178740000Y-120300000D03*
X178740000Y-120800000D03*
X178740000Y-121300000D03*
X178740000Y-121800000D03*
D17*
X179425000Y-122485000D03*
X179925000Y-122485000D03*
X180425000Y-122485000D03*
X180925000Y-122485000D03*
D16*
X181610000Y-121800000D03*
X181610000Y-121300000D03*
X181610000Y-120800000D03*
X181610000Y-120300000D03*
D17*
X180925000Y-119615000D03*
X180425000Y-119615000D03*
X179925000Y-119615000D03*
X179425000Y-119615000D03*
%TD*%
D18*
%TO.C,R6*%
X218450000Y-147425000D03*
X218450000Y-150525000D03*
%TD*%
D19*
%TO.C,D1*%
X195075000Y-137425000D03*
X195075000Y-132425000D03*
%TD*%
D20*
%TO.C,C5*%
X178287500Y-124875000D03*
X181412500Y-124875000D03*
%TD*%
D21*
%TO.C,C11*%
X209287500Y-143950000D03*
X206162500Y-143950000D03*
%TD*%
%TO.C,C13*%
X209275000Y-148500000D03*
X206150000Y-148500000D03*
%TD*%
D22*
%TO.C,U1*%
X190050000Y-88040000D03*
X190050000Y-89310000D03*
X190050000Y-90580000D03*
X190050000Y-91850000D03*
X190050000Y-93120000D03*
X190050000Y-94390000D03*
X190050000Y-95660000D03*
X190050000Y-96930000D03*
X190050000Y-98200000D03*
X190050000Y-99470000D03*
X190050000Y-100740000D03*
X190050000Y-102010000D03*
X190050000Y-103280000D03*
X190050000Y-104550000D03*
D23*
X193080000Y-105800000D03*
X194350000Y-105800000D03*
X195620000Y-105800000D03*
X196890000Y-105800000D03*
X198160000Y-105800000D03*
X199430000Y-105800000D03*
X200700000Y-105800000D03*
X201970000Y-105800000D03*
X203240000Y-105800000D03*
X204510000Y-105800000D03*
D22*
X207550000Y-104550000D03*
X207550000Y-103280000D03*
X207550000Y-102010000D03*
X207550000Y-100740000D03*
X207550000Y-99470000D03*
X207550000Y-98200000D03*
X207550000Y-96930000D03*
X207550000Y-95660000D03*
X207550000Y-94390000D03*
X207550000Y-93120000D03*
X207550000Y-91850000D03*
X207550000Y-90580000D03*
X207550000Y-89310000D03*
X207550000Y-88040000D03*
D24*
X195900000Y-94360000D03*
X195900000Y-94360000D03*
X195900000Y-95760000D03*
X195900000Y-97160000D03*
X195900000Y-97160000D03*
X197300000Y-94360000D03*
X197300000Y-95760000D03*
X197300000Y-97160000D03*
X197300000Y-97160000D03*
X198700000Y-94360000D03*
X198700000Y-95760000D03*
X198700000Y-97160000D03*
%TD*%
D25*
%TO.C,SW1*%
X210700000Y-153050000D03*
X210700000Y-156450000D03*
%TD*%
D21*
%TO.C,C10*%
X186450000Y-95775000D03*
X183325000Y-95775000D03*
%TD*%
D25*
%TO.C,SW2*%
X215400000Y-153000000D03*
X215400000Y-156400000D03*
%TD*%
D26*
%TO.C,U4*%
X205025000Y-130980000D03*
X205025000Y-132250000D03*
X205025000Y-133520000D03*
X205025000Y-134790000D03*
X205025000Y-136060000D03*
X205025000Y-137330000D03*
X205025000Y-138600000D03*
X205025000Y-139870000D03*
X209975000Y-139870000D03*
X209975000Y-138600000D03*
X209975000Y-137330000D03*
X209975000Y-136060000D03*
X209975000Y-134790000D03*
X209975000Y-133520000D03*
X209975000Y-132250000D03*
X209975000Y-130980000D03*
%TD*%
D27*
%TO.C,L1*%
X190675000Y-135587500D03*
X190675000Y-132612500D03*
%TD*%
D13*
%TO.C,C3*%
X180700000Y-132462500D03*
X180700000Y-135587500D03*
%TD*%
D28*
%TO.C,R4*%
X201475000Y-148200000D03*
X201475000Y-145100000D03*
%TD*%
D14*
%TO.C,C8*%
X186800000Y-90775000D03*
X186800000Y-87650000D03*
%TD*%
%TO.C,C1*%
X189900000Y-146487500D03*
X189900000Y-143362500D03*
%TD*%
D28*
%TO.C,R3*%
X198000000Y-148200000D03*
X198000000Y-145100000D03*
%TD*%
D20*
%TO.C,C4*%
X178287500Y-128775000D03*
X181412500Y-128775000D03*
%TD*%
D29*
%TO.C,D2*%
X194625000Y-143500000D03*
X194625000Y-148500000D03*
%TD*%
D14*
%TO.C,C6*%
X182950000Y-114812500D03*
X182950000Y-111687500D03*
%TD*%
%TO.C,C12*%
X194950000Y-127862500D03*
X194950000Y-124737500D03*
%TD*%
D15*
%TO.C,Q1*%
X213450000Y-131175000D03*
X215350000Y-131175000D03*
X214400000Y-129300000D03*
%TD*%
D30*
%TO.C,R5*%
X183375000Y-93150000D03*
X186475000Y-93150000D03*
%TD*%
D18*
%TO.C,R2*%
X183525000Y-132575000D03*
X183525000Y-135675000D03*
%TD*%
D28*
%TO.C,R1*%
X180675000Y-140750000D03*
X180675000Y-137650000D03*
%TD*%
M02*
